<?xml version="1.0" encoding="UTF-8" standalone="no"?>
<svg
   xmlns:dc="http://purl.org/dc/elements/1.1/"
   xmlns:cc="http://creativecommons.org/ns#"
   xmlns:rdf="http://www.w3.org/1999/02/22-rdf-syntax-ns#"
   xmlns:svg="http://www.w3.org/2000/svg"
   xmlns="http://www.w3.org/2000/svg"
   xmlns:sodipodi="http://sodipodi.sourceforge.net/DTD/sodipodi-0.dtd"
   xmlns:inkscape="http://www.inkscape.org/namespaces/inkscape"
   version="1.1"
   id="svg2"
   xml:space="preserve"
   width="666.66669"
   height="496.81332"
   viewBox="0 0 666.66669 496.81332"
   sodipodi:docname="2953965.eps"><metadata
     id="metadata8"><rdf:RDF><cc:Work
         rdf:about=""><dc:format>image/svg+xml</dc:format><dc:type
           rdf:resource="http://purl.org/dc/dcmitype/StillImage" /></cc:Work></rdf:RDF></metadata><defs
     id="defs6"><clipPath
       clipPathUnits="userSpaceOnUse"
       id="clipPath58"><path
         d="m 4033.1,3361.03 h -27.25 v 65.16 h 33.79 l -6.54,-65.16"
         id="path56" /></clipPath><clipPath
       clipPathUnits="userSpaceOnUse"
       id="clipPath338"><path
         d="m 2566.41,1854.84 c -6.05,9.9 -12.34,19.63 -18.86,29.19 v 335.87 l 199.3,34.74 56.18,-322.33 c -6.67,-9.76 -12.38,-20.24 -16.98,-31.29 -19.46,4.53 -39.74,6.92 -60.58,6.92 -59.71,0 -114.65,-19.9 -159.06,-53.1 m -21.36,32.84 c -33.7,48.82 -73.32,93.22 -117.84,132.18 v 179.07 l 117.84,20.54 v -331.79 m -120.34,134.36 c -68.21,59.13 -147.79,105.54 -234.98,135.5 l 234.98,40.95 v -176.45"
         id="path336" /></clipPath></defs><sodipodi:namedview
     pagecolor="#ffffff"
     bordercolor="#666666"
     borderopacity="1"
     objecttolerance="10"
     gridtolerance="10"
     guidetolerance="10"
     inkscape:pageopacity="0"
     inkscape:pageshadow="2"
     inkscape:window-width="640"
     inkscape:window-height="480"
     id="namedview4" /><g
     id="g10"
     inkscape:groupmode="layer"
     inkscape:label="ink_ext_XXXXXX"
     transform="matrix(1.3333333,0,0,-1.3333333,0,496.81333)"><g
       id="g12"
       transform="scale(0.1)"><path
         d="m 0,449.129 h 5000 v 2.5 H 0 Z"
         style="fill:#e7e8e5;fill-opacity:1;fill-rule:nonzero;stroke:none"
         id="path14" /><path
         d="M 950,361.031 H 537.922 v 2.5 H 950 v -2.5"
         style="fill:#e7e8e5;fill-opacity:1;fill-rule:nonzero;stroke:none"
         id="path16" /><path
         d="m 1790,381.031 h -413.33 v 2.5 H 1790 v -2.5"
         style="fill:#e7e8e5;fill-opacity:1;fill-rule:nonzero;stroke:none"
         id="path18" /><path
         d="m 2327.78,381.031 h -100 v 2.5 h 100 v -2.5"
         style="fill:#e7e8e5;fill-opacity:1;fill-rule:nonzero;stroke:none"
         id="path20" /><path
         d="M 1328.33,295.621 H 865.82 v 2.5 h 462.51 v -2.5"
         style="fill:#e7e8e5;fill-opacity:1;fill-rule:nonzero;stroke:none"
         id="path22" /><path
         d="m 2712.01,364.781 h 215.97 v -2.5 h -215.97 v 2.5"
         style="fill:#e7e8e5;fill-opacity:1;fill-rule:nonzero;stroke:none"
         id="path24" /><path
         d="m 3017.01,362.281 h 279.297 v 2.5 H 3017.01 Z"
         style="fill:#e7e8e5;fill-opacity:1;fill-rule:nonzero;stroke:none"
         id="path26" /><path
         d="m 4018.88,322.559 h 624.45 v -2.5 h -624.45 v 2.5"
         style="fill:#e7e8e5;fill-opacity:1;fill-rule:nonzero;stroke:none"
         id="path28" /><path
         d="m 439.152,3723.59 c -30.101,0 -54.582,-24.48 -54.582,-54.57 V 954.699 c 0,-30.097 24.481,-54.578 54.582,-54.578 H 2370.14 c 30.09,0 54.57,24.481 54.57,54.578 V 3669.02 c 0,30.09 -24.48,54.57 -54.57,54.57 H 439.152 M 2370.14,897.621 H 439.152 c -31.476,0 -57.082,25.598 -57.082,57.078 V 3669.02 c 0,31.46 25.606,57.07 57.082,57.07 H 2370.14 c 31.46,0 57.07,-25.61 57.07,-57.07 V 954.699 c 0,-31.48 -25.61,-57.078 -57.07,-57.078"
         style="fill:#e7e8e5;fill-opacity:1;fill-rule:nonzero;stroke:none"
         id="path30" /><path
         d="m 2602.12,3723.59 c -30.09,0 -54.57,-24.48 -54.57,-54.57 V 954.699 c 0,-30.097 24.48,-54.578 54.57,-54.578 H 4533.1 c 30.1,0 54.59,24.481 54.59,54.578 V 3669.02 c 0,30.09 -24.49,54.57 -54.59,54.57 H 2602.12 M 4533.1,897.621 H 2602.12 c -31.47,0 -57.07,25.598 -57.07,57.078 V 3669.02 c 0,31.46 25.6,57.07 57.07,57.07 H 4533.1 c 31.48,0 57.09,-25.61 57.09,-57.07 V 954.699 c 0,-31.48 -25.61,-57.078 -57.09,-57.078"
         style="fill:#e7e8e5;fill-opacity:1;fill-rule:nonzero;stroke:none"
         id="path32" /><path
         d="M 3053.26,2200.37 H 4084.17 V 3524.94 H 3053.26 Z"
         style="fill:#e2e2e0;fill-opacity:1;fill-rule:nonzero;stroke:none"
         id="path34" /><path
         d="M 3002.47,2200.37 H 4076.96 V 3524.94 H 3002.47 Z"
         style="fill:#ededeb;fill-opacity:1;fill-rule:nonzero;stroke:none"
         id="path36" /><path
         d="m 3053.26,2153.17 h 1030.91 v 47.1992 H 3053.26 Z"
         style="fill:#e2e2e0;fill-opacity:1;fill-rule:nonzero;stroke:none"
         id="path38" /><path
         d="m 2917.86,2153.17 h 1074.49 v 47.1992 H 2917.86 Z"
         style="fill:#ededeb;fill-opacity:1;fill-rule:nonzero;stroke:none"
         id="path40" /><path
         d="m 3073.58,2271.47 h 932.27 v 1182.37 h -932.27 z"
         style="fill:#fafaf9;fill-opacity:1;fill-rule:nonzero;stroke:none"
         id="path42" /><path
         d="M 3694.18,2271.47 3580.31,3453.84 H 3383.3 l 113.87,-1182.37 h 197.01"
         style="fill:#ffffff;fill-opacity:1;fill-rule:nonzero;stroke:none"
         id="path44" /><path
         d="m 3972.93,2672.26 c 3.01,0 5.44,2.44 5.44,5.44 v 729.87 c 0,3.01 -2.43,5.44 -5.44,5.44 -3.01,0 -5.44,-2.43 -5.44,-5.44 V 2677.7 c 0,-3 2.43,-5.44 5.44,-5.44"
         style="fill:#ededeb;fill-opacity:1;fill-rule:nonzero;stroke:none"
         id="path46" /><path
         d="m 3454.85,2271.47 -113.87,1182.37 h -76.81 l 113.87,-1182.37 h 76.81"
         style="fill:#ffffff;fill-opacity:1;fill-rule:nonzero;stroke:none"
         id="path48" /><path
         d="m 3073.58,2271.47 h 9.0273 v 1182.37 h -9.0273 z"
         style="fill:#e2e2e0;fill-opacity:1;fill-rule:nonzero;stroke:none"
         id="path50" /><g
         id="g52"><g
           id="g54"
           clip-path="url(#clipPath58)"><path
             d="m 4005.85,3361.03 h 33.7891 v 65.1641 H 4005.85 Z"
             style="fill:#e4e4e2;fill-opacity:1;fill-rule:nonzero;stroke:none"
             id="path60" /></g></g><path
         d="m 4005.85,3361.03 h -27.48 v 46.54 c 0,3.01 -2.43,5.44 -5.44,5.44 -3.01,0 -5.44,-2.43 -5.44,-5.44 v -46.54 h -378.24 l -6.27,65.16 h 422.87 v -65.16 m -613.61,0 h -42.32 l -6.28,65.16 h 42.32 l 6.28,-65.16"
         style="fill:#eaeae7;fill-opacity:1;fill-rule:nonzero;stroke:none"
         id="path62" /><path
         d="m 3589.25,3361.03 h -197.01 l -6.28,65.16 h 197.02 l 6.27,-65.16"
         style="fill:#ececea;fill-opacity:1;fill-rule:nonzero;stroke:none"
         id="path64" /><path
         d="m 3273.11,3361.03 h -190.5 v 65.16 h 184.22 l 6.28,-65.16"
         style="fill:#eaeae7;fill-opacity:1;fill-rule:nonzero;stroke:none"
         id="path66" /><path
         d="m 3002.47,3361.03 h -16.8 l 6.54,65.16 h 10.26 v -65.16"
         style="fill:#ececea;fill-opacity:1;fill-rule:nonzero;stroke:none"
         id="path68" /><path
         d="m 3002.47,3361.03 h 71.1133 v 65.1641 H 3002.47 Z"
         style="fill:#e4e4e2;fill-opacity:1;fill-rule:nonzero;stroke:none"
         id="path70" /><path
         d="m 3978.37,3361.03 h -10.88 v 46.54 c 0,3.01 2.43,5.44 5.44,5.44 3.01,0 5.44,-2.43 5.44,-5.44 v -46.54"
         style="fill:#e4e4e2;fill-opacity:1;fill-rule:nonzero;stroke:none"
         id="path72" /><path
         d="m 3349.92,3361.03 h -76.81 l -6.28,65.16 h 76.81 l 6.28,-65.16"
         style="fill:#ececea;fill-opacity:1;fill-rule:nonzero;stroke:none"
         id="path74" /><path
         d="m 3073.58,3361.03 h 9.0273 v 65.1641 h -9.0273 z"
         style="fill:#dddedb;fill-opacity:1;fill-rule:nonzero;stroke:none"
         id="path76" /><path
         d="m 4033.1,3253.91 h -27.25 v 65.16 h 33.79 l -6.54,-65.16"
         style="fill:#e4e4e2;fill-opacity:1;fill-rule:nonzero;stroke:none"
         id="path78" /><path
         d="m 4005.85,3253.91 h -27.48 v 65.16 h 27.48 v -65.16 m -38.36,0 h -367.92 l -6.28,65.16 h 374.2 v -65.16 m -564.94,0 h -42.32 l -6.27,65.16 h 42.32 l 6.27,-65.16"
         style="fill:#eaeae7;fill-opacity:1;fill-rule:nonzero;stroke:none"
         id="path80" /><path
         d="m 3599.57,3253.91 h -197.02 l -6.27,65.16 h 197.01 l 6.28,-65.16"
         style="fill:#ececea;fill-opacity:1;fill-rule:nonzero;stroke:none"
         id="path82" /><path
         d="m 3283.42,3253.91 h -200.81 v 65.16 h 194.54 l 6.27,-65.16"
         style="fill:#eaeae7;fill-opacity:1;fill-rule:nonzero;stroke:none"
         id="path84" /><path
         d="m 3002.47,3253.91 h -16.8 l 6.54,65.16 h 10.26 v -65.16"
         style="fill:#ececea;fill-opacity:1;fill-rule:nonzero;stroke:none"
         id="path86" /><path
         d="m 3002.47,3253.91 h 71.1133 v 65.1602 H 3002.47 Z"
         style="fill:#e4e4e2;fill-opacity:1;fill-rule:nonzero;stroke:none"
         id="path88" /><path
         d="m 3967.49,3253.91 h 10.8828 v 65.1602 H 3967.49 Z"
         style="fill:#e4e4e2;fill-opacity:1;fill-rule:nonzero;stroke:none"
         id="path90" /><path
         d="m 3360.23,3253.91 h -76.81 l -6.27,65.16 h 76.81 l 6.27,-65.16"
         style="fill:#ececea;fill-opacity:1;fill-rule:nonzero;stroke:none"
         id="path92" /><path
         d="m 3073.58,3253.91 h 9.0273 v 65.1602 h -9.0273 z"
         style="fill:#dddedb;fill-opacity:1;fill-rule:nonzero;stroke:none"
         id="path94" /><path
         d="m 4033.1,3146.79 h -27.25 v 65.16 h 33.79 l -6.54,-65.16"
         style="fill:#e4e4e2;fill-opacity:1;fill-rule:nonzero;stroke:none"
         id="path96" /><path
         d="m 4005.85,3146.79 h -27.48 v 65.16 h 27.48 v -65.16 m -38.36,0 h -357.61 l -6.27,65.16 h 363.88 v -65.16 m -554.62,0 h -42.32 l -6.28,65.16 h 42.32 l 6.28,-65.16"
         style="fill:#eaeae7;fill-opacity:1;fill-rule:nonzero;stroke:none"
         id="path98" /><path
         d="m 3609.88,3146.79 h -197.01 l -6.28,65.16 h 197.02 l 6.27,-65.16"
         style="fill:#ececea;fill-opacity:1;fill-rule:nonzero;stroke:none"
         id="path100" /><path
         d="m 3293.74,3146.79 h -211.13 v 65.16 h 204.85 l 6.28,-65.16"
         style="fill:#eaeae7;fill-opacity:1;fill-rule:nonzero;stroke:none"
         id="path102" /><path
         d="m 3002.47,3146.79 h -16.8 l 6.54,65.16 h 10.26 v -65.16"
         style="fill:#ececea;fill-opacity:1;fill-rule:nonzero;stroke:none"
         id="path104" /><path
         d="m 3002.47,3146.79 h 71.1133 v 65.1602 H 3002.47 Z"
         style="fill:#e4e4e2;fill-opacity:1;fill-rule:nonzero;stroke:none"
         id="path106" /><path
         d="m 3967.49,3146.79 h 10.8828 v 65.1602 H 3967.49 Z"
         style="fill:#e4e4e2;fill-opacity:1;fill-rule:nonzero;stroke:none"
         id="path108" /><path
         d="m 3370.55,3146.79 h -76.81 l -6.28,65.16 h 76.81 l 6.28,-65.16"
         style="fill:#ececea;fill-opacity:1;fill-rule:nonzero;stroke:none"
         id="path110" /><path
         d="m 3073.58,3146.79 h 9.0273 v 65.1602 h -9.0273 z"
         style="fill:#dddedb;fill-opacity:1;fill-rule:nonzero;stroke:none"
         id="path112" /><path
         d="m 4033.1,3039.66 h -27.25 v 65.16 h 33.79 l -6.54,-65.16"
         style="fill:#e4e4e2;fill-opacity:1;fill-rule:nonzero;stroke:none"
         id="path114" /><path
         d="m 4005.85,3039.66 h -27.48 v 65.16 h 27.48 v -65.16 m -38.36,0 H 3620.2 l -6.28,65.16 h 353.57 v -65.16 m -544.3,0 h -42.33 l -6.27,65.16 h 42.32 l 6.28,-65.16"
         style="fill:#eaeae7;fill-opacity:1;fill-rule:nonzero;stroke:none"
         id="path116" /><path
         d="m 3620.2,3039.66 h -197.01 l -6.28,65.16 h 197.01 l 6.28,-65.16"
         style="fill:#ececea;fill-opacity:1;fill-rule:nonzero;stroke:none"
         id="path118" /><path
         d="m 3304.06,3039.66 h -221.45 v 65.16 h 215.17 l 6.28,-65.16"
         style="fill:#eaeae7;fill-opacity:1;fill-rule:nonzero;stroke:none"
         id="path120" /><path
         d="m 3002.47,3039.66 h -16.8 l 6.54,65.16 h 10.26 v -65.16"
         style="fill:#ececea;fill-opacity:1;fill-rule:nonzero;stroke:none"
         id="path122" /><path
         d="m 3002.47,3039.66 h 71.1133 v 65.1602 H 3002.47 Z"
         style="fill:#e4e4e2;fill-opacity:1;fill-rule:nonzero;stroke:none"
         id="path124" /><path
         d="m 3967.49,3039.66 h 10.8828 v 65.1602 H 3967.49 Z"
         style="fill:#e4e4e2;fill-opacity:1;fill-rule:nonzero;stroke:none"
         id="path126" /><path
         d="m 3380.86,3039.66 h -76.8 l -6.28,65.16 h 76.81 l 6.27,-65.16"
         style="fill:#ececea;fill-opacity:1;fill-rule:nonzero;stroke:none"
         id="path128" /><path
         d="m 3073.58,3039.66 h 9.0273 v 65.1602 h -9.0273 z"
         style="fill:#dddedb;fill-opacity:1;fill-rule:nonzero;stroke:none"
         id="path130" /><path
         d="m 3002.47,2932.54 h -16.8 l 6.54,65.16 h 10.26 v -65.16"
         style="fill:#ececea;fill-opacity:1;fill-rule:nonzero;stroke:none"
         id="path132" /><path
         d="m 4033.1,2932.54 h -27.25 v 65.16 h 33.79 l -6.54,-65.16 m -959.52,0 h -71.11 v 65.16 h 71.11 v -65.16"
         style="fill:#e4e4e2;fill-opacity:1;fill-rule:nonzero;stroke:none"
         id="path134" /><path
         d="m 4005.85,2932.54 h -27.48 v 65.16 h 27.48 v -65.16 m -38.36,0 h -336.97 l -6.28,65.16 h 343.25 v -65.16 m -533.99,0 h -42.32 l -6.27,65.16 h 42.32 l 6.27,-65.16 m -119.13,0 h -231.76 v 65.16 h 225.49 l 6.27,-65.16"
         style="fill:#eaeae7;fill-opacity:1;fill-rule:nonzero;stroke:none"
         id="path136" /><path
         d="M 3630.52,2932.54 H 3433.5 l -6.27,65.16 h 197.01 l 6.28,-65.16"
         style="fill:#ececea;fill-opacity:1;fill-rule:nonzero;stroke:none"
         id="path138" /><path
         d="m 3967.49,2932.54 h 10.8828 v 65.1641 H 3967.49 Z"
         style="fill:#e4e4e2;fill-opacity:1;fill-rule:nonzero;stroke:none"
         id="path140" /><path
         d="m 3391.18,2932.54 h -76.81 l -6.27,65.16 h 76.81 l 6.27,-65.16"
         style="fill:#ececea;fill-opacity:1;fill-rule:nonzero;stroke:none"
         id="path142" /><path
         d="m 3073.58,2932.54 h 9.0273 v 65.1641 h -9.0273 z"
         style="fill:#dddedb;fill-opacity:1;fill-rule:nonzero;stroke:none"
         id="path144" /><path
         d="m 4033.1,2825.42 h -27.25 v 65.16 h 33.79 l -6.54,-65.16"
         style="fill:#e4e4e2;fill-opacity:1;fill-rule:nonzero;stroke:none"
         id="path146" /><path
         d="m 4005.85,2825.42 h -27.48 v 65.16 h 27.48 v -65.16 m -38.36,0 h -326.66 l -6.27,65.16 h 332.93 v -65.16"
         style="fill:#eaeae7;fill-opacity:1;fill-rule:nonzero;stroke:none"
         id="path148" /><path
         d="M 3640.83,2825.42 H 3484.9 c 3.51,24.05 8.63,46.95 13.48,65.16 h 136.18 l 6.27,-65.16"
         style="fill:#ececea;fill-opacity:1;fill-rule:nonzero;stroke:none"
         id="path150" /><path
         d="m 3967.49,2825.42 h 10.8828 v 65.1641 H 3967.49 Z"
         style="fill:#e4e4e2;fill-opacity:1;fill-rule:nonzero;stroke:none"
         id="path152" /><path
         d="m 3002.47,2825.42 h -16.8 l 6.54,65.16 h 10.26 v -65.16"
         style="fill:#ececea;fill-opacity:1;fill-rule:nonzero;stroke:none"
         id="path154" /><path
         d="m 3002.47,2825.42 h 71.1133 v 65.1641 H 3002.47 Z"
         style="fill:#e4e4e2;fill-opacity:1;fill-rule:nonzero;stroke:none"
         id="path156" /><path
         d="m 3408.49,2825.42 h -6.99 l -6.28,65.16 h 42.32 l 3.93,-40.76 -32.98,-24.4 m -83.8,0 h -242.08 v 65.16 h 235.8 l 6.28,-65.16"
         style="fill:#eaeae7;fill-opacity:1;fill-rule:nonzero;stroke:none"
         id="path158" /><path
         d="m 3441.47,2849.82 -3.93,40.76 h 59.01 l -55.08,-40.76"
         style="fill:#ececea;fill-opacity:1;fill-rule:nonzero;stroke:none"
         id="path160" /><path
         d="m 3401.5,2825.42 h -76.81 l -6.28,65.16 h 76.81 l 6.28,-65.16"
         style="fill:#ececea;fill-opacity:1;fill-rule:nonzero;stroke:none"
         id="path162" /><path
         d="m 3073.58,2825.42 h 9.0273 v 65.1641 h -9.0273 z"
         style="fill:#dddedb;fill-opacity:1;fill-rule:nonzero;stroke:none"
         id="path164" /><path
         d="m 2189.6,451.629 h 159.117 v 862.883 H 2189.6 Z"
         style="fill:#e2e2e0;fill-opacity:1;fill-rule:nonzero;stroke:none"
         id="path166" /><path
         d="M 2237.31,451.629 H 2189.6 V 616.75 h 97.72 l -50.01,-165.121"
         style="fill:#ededeb;fill-opacity:1;fill-rule:nonzero;stroke:none"
         id="path168" /><path
         d="m 4171.99,451.629 h 159.12 V 1314.51 H 4171.99 V 451.629"
         style="fill:#e2e2e0;fill-opacity:1;fill-rule:nonzero;stroke:none"
         id="path170" /><path
         d="m 2189.6,552.961 h 2024.02 v 761.551 H 2189.6 Z"
         style="fill:#ededeb;fill-opacity:1;fill-rule:nonzero;stroke:none"
         id="path172" /><path
         d="m 4165.92,451.629 h 47.7 V 616.75 h -97.72 l 50.02,-165.121"
         style="fill:#ededeb;fill-opacity:1;fill-rule:nonzero;stroke:none"
         id="path174" /><path
         d="m 2226.61,956.18 h 1950 v 304.73 h -1950 z"
         style="fill:#e2e2e0;fill-opacity:1;fill-rule:nonzero;stroke:none"
         id="path176" /><path
         d="m 2512.41,1166.21 h 1346.36 c 46.54,0 91.04,37.59 123.05,103.96 H 2389.36 c 32.01,-66.37 76.51,-103.96 123.05,-103.96"
         style="fill:#ededeb;fill-opacity:1;fill-rule:nonzero;stroke:none"
         id="path178" /><path
         d="m 2226.61,602.211 h 1950 V 906.93 h -1950 z"
         style="fill:#e2e2e0;fill-opacity:1;fill-rule:nonzero;stroke:none"
         id="path180" /><path
         d="m 2512.41,812.23 h 1346.36 c 46.54,0 91.04,37.602 123.05,103.969 v 0 H 2389.36 v 0 c 32.01,-66.367 76.51,-103.969 123.05,-103.969"
         style="fill:#ededeb;fill-opacity:1;fill-rule:nonzero;stroke:none"
         id="path182" /><path
         d="m 3755.75,1526.73 c 24.76,24.15 -1.47,57.05 31.79,80.39 33.25,23.34 4.72,58.45 5.9,90.94 1.19,32.48 44.66,37.63 57.09,75.36 5.19,15.77 -0.91,35.5 -9.76,53.14 -18.81,37.45 -70.43,46.07 -98.36,14.82 -1.34,-1.5 -2.63,-3.07 -3.86,-4.72 -24.62,-32.94 -0.46,-64.64 -27.93,-86.81 -27.47,-22.17 -76.79,-26.72 -75.18,-63.75 1.61,-37.02 -35.73,-40.17 -55.63,-68.71 -12.25,-17.56 -2.91,-46.68 6.1,-66.5 6.36,-14 17.81,-25.04 32.05,-30.85 33.1,-13.51 97.89,-32.23 137.79,6.69"
         style="fill:#e7e8e5;fill-opacity:1;fill-rule:nonzero;stroke:none"
         id="path184" /><path
         d="m 3810.76,1439.29 c 41.87,17.66 25.59,70.46 77.45,83.04 51.85,12.59 33.83,69.2 50.86,108.36 17.04,39.16 72.66,24.59 105.97,64.76 20.53,24.77 15.15,71.9 8.01,104.41 -5.13,23.37 -25.29,40.55 -49.19,41.66 -19.8,0.92 -44.02,-1.76 -65.39,-15.01 -45.92,-28.47 -31.58,-78.82 -75.81,-92.74 -44.23,-13.92 -106.72,4.17 -122.52,-41.87 -15.8,-46.04 -62.97,-31.97 -101,-57.32 -27.27,-18.17 -26.23,-69.61 -23.46,-97.29 1.2,-11.98 6.5,-23.11 14.92,-31.71 29.46,-30.07 106.47,-97.36 180.16,-66.29"
         style="fill:#dadbd8;fill-opacity:1;fill-rule:nonzero;stroke:none"
         id="path186" /><path
         d="m 3777.28,1651.39 c 12.69,9.72 25.65,8.4 38.68,7.07 15.18,-1.54 30.44,-3.08 45.45,12.82 27.88,29.54 58.52,-3.74 90.84,-7.25 32.32,-3.51 43.67,38.77 82.8,45.64 16.34,2.87 34.99,-6 51.17,-17.31 34.36,-24.01 35.46,-76.33 0.51,-99.47 -1.68,-1.1 -3.42,-2.15 -5.23,-3.13 -17.28,-9.39 -32.68,-7.77 -46.88,-6.15 -15.48,1.76 -29.53,3.53 -43.04,-8.99 -25.89,-24 -37.5,-72.15 -73.91,-65.22 -36.4,6.92 -44.9,-29.58 -76.01,-45.17 -19.13,-9.59 -46.61,3.85 -64.93,15.62 -12.94,8.3 -22.22,21.23 -25.92,36.16 -8.6,34.7 -17.79,101.51 26.47,135.38"
         style="fill:#e7e8e5;fill-opacity:1;fill-rule:nonzero;stroke:none"
         id="path188" /><path
         d="m 3480.34,1607.57 c 0,0 8.7,-293.06 342.21,-293.06 333.51,0 342.21,293.06 342.21,293.06 h -684.42"
         style="fill:#f3f2f1;fill-opacity:1;fill-rule:nonzero;stroke:none"
         id="path190" /><path
         d="M 1715.43,1194.03 H 696.168 v 125.69 H 1715.43 v -125.69"
         style="fill:#e7e8e5;fill-opacity:1;fill-rule:nonzero;stroke:none"
         id="path192" /><path
         d="m 1219.66,1602.91 v 0 c -49.56,10.35 -81.34,58.92 -70.98,108.47 l 91.46,437.77 c 10.36,49.56 58.92,81.33 108.48,70.98 v 0 c 49.55,-10.35 81.33,-58.92 70.98,-108.47 l -91.47,-437.77 c -10.35,-49.56 -58.92,-81.34 -108.47,-70.98"
         style="fill:#ededeb;fill-opacity:1;fill-rule:nonzero;stroke:none"
         id="path194" /><path
         d="m 1164.59,1612.47 v 0 c -42.81,-6.48 -82.77,22.98 -89.24,65.79 l -57.21,378.19 c -6.47,42.81 22.98,82.76 65.79,89.24 v 0 c 42.81,6.48 82.77,-22.98 89.24,-65.79 l 57.21,-378.19 c 6.47,-42.81 -22.98,-82.77 -65.79,-89.24"
         style="fill:#ededeb;fill-opacity:1;fill-rule:nonzero;stroke:none"
         id="path196" /><path
         d="m 1376.18,1319.72 h -340.75 l -71.067,405.64 h 482.877 l -71.06,-405.64"
         style="fill:#e2e2e0;fill-opacity:1;fill-rule:nonzero;stroke:none"
         id="path198" /><path
         d="M 1473.13,1667.47 H 938.473 v 115.79 h 534.657 v -115.79"
         style="fill:#dadbd8;fill-opacity:1;fill-rule:nonzero;stroke:none"
         id="path200" /><path
         d="m 1873.67,451.629 -356.29,742.401 h -143.51 l 445.37,-742.401 h 54.43"
         style="fill:#dadbd8;fill-opacity:1;fill-rule:nonzero;stroke:none"
         id="path202" /><path
         d="M 537.922,451.629 894.215,1194.03 H 1037.72 L 592.355,451.629 h -54.433"
         style="fill:#dadbd8;fill-opacity:1;fill-rule:nonzero;stroke:none"
         id="path204" /><path
         d="m 1037.72,451.629 124.64,742.401 h 143.5 L 1092.15,451.629 h -54.43"
         style="fill:#dadbd8;fill-opacity:1;fill-rule:nonzero;stroke:none"
         id="path206" /><path
         d="M 2101.31,2634.88 H 707.973 v 778.13 H 2101.31 v -778.13"
         style="fill:#e2e2e0;fill-opacity:1;fill-rule:nonzero;stroke:none"
         id="path208" /><path
         d="M 2087.97,2634.88 H 694.641 v 778.13 H 2087.97 v -778.13"
         style="fill:#f3f2f1;fill-opacity:1;fill-rule:nonzero;stroke:none"
         id="path210" /><path
         d="m 794.641,2734.88 v 578.13 H 1987.97 V 2734.88 H 794.641"
         style="fill:#ffffff;fill-opacity:1;fill-rule:nonzero;stroke:none"
         id="path212" /><path
         d="m 794.641,2734.88 v 578.13 h 13.136 v -578.13 h -13.136"
         style="fill:#e2e2e0;fill-opacity:1;fill-rule:nonzero;stroke:none"
         id="path214" /><path
         d="m 1286.64,3029.64 -396.199,-25.38 -13.05,203.78 396.199,25.37 13.05,-203.77"
         style="fill:#f3f2f1;fill-opacity:1;fill-rule:nonzero;stroke:none"
         id="path216" /><path
         d="m 1300.42,2814.54 -396.205,-25.37 -13.047,203.77 396.202,25.38 13.05,-203.78"
         style="fill:#f3f2f1;fill-opacity:1;fill-rule:nonzero;stroke:none"
         id="path218" /><path
         d="m 1567.39,2933.95 -261.05,-16.72 -18.49,288.67 261.05,16.72 18.49,-288.67"
         style="fill:#f3f2f1;fill-opacity:1;fill-rule:nonzero;stroke:none"
         id="path220" /><path
         d="m 1836.36,3022.21 -261.05,-16.71 -10.94,170.84 261.05,16.71 10.94,-170.84"
         style="fill:#f3f2f1;fill-opacity:1;fill-rule:nonzero;stroke:none"
         id="path222" /><path
         d="m 1583.2,2882.26 -7.51,117.32 348.68,22.33 7.52,-117.32 -348.69,-22.33"
         style="fill:#f3f2f1;fill-opacity:1;fill-rule:nonzero;stroke:none"
         id="path224" /><path
         d="M 4438.89,113.238 C 4438.89,50.6992 3570.82,0 2500,0 1429.18,0 561.109,50.6992 561.109,113.238 c 0,62.532 868.071,113.231 1938.891,113.231 1070.82,0 1938.89,-50.699 1938.89,-113.231"
         style="fill:#f3f2f1;fill-opacity:1;fill-rule:nonzero;stroke:none"
         id="path226" /><path
         d="m 3857.19,1968.34 c -3.31,0 -6.59,-0.15 -9.89,-0.25 -81.05,136.44 -229.84,227.94 -400.06,227.94 -168.02,0 -315.2,-89.11 -396.94,-222.64 -28.98,21.67 -64.83,34.65 -103.79,34.65 -95.95,0 -173.73,-77.77 -173.73,-173.72 0,-5.52 0.32,-10.97 0.83,-16.37 -145.55,-7.85 -261.16,-128.34 -261.16,-275.85 0,-152.59 123.69,-276.29 276.28,-276.29 h 1068.46 c 193.99,0 351.26,157.27 351.26,351.27 0,194 -157.27,351.26 -351.26,351.26"
         style="fill:#406fbf;fill-opacity:1;fill-rule:nonzero;stroke:none"
         id="path228" /><path
         d="M 3857.19,1265.81 H 3554.2 c -1.05,42.95 -1.5,87.96 -1.5,133.63 0,279.36 16.86,582.88 16.86,582.88 v 0 0 l -143.73,10.03 v 0.01 c 64.01,-4.46 118.4,-8.24 143.78,-9.99 3.12,27.11 1.64,99.15 5.12,195.95 115.44,-32.86 212.57,-109.23 272.57,-210.23 3.3,0.1 6.58,0.25 9.89,0.25 193.99,0 351.26,-157.26 351.26,-351.26 0,-194 -157.27,-351.27 -351.26,-351.27 m -524.57,142.16 c -13.21,22.51 -28.45,43.69 -45.46,63.28 10.61,44.33 21.65,88.77 32.66,131.97 3.89,-64.47 8.2,-131.15 12.8,-195.25 M 3055,1608.15 c -20.99,4.43 -42.55,7.3 -64.57,8.48 0.78,8.27 1.27,16.62 1.27,25.09 0,117.62 -76.27,217.41 -182.05,252.64 l -6.62,37.95 c 31.3,45.73 83.88,75.73 143.48,75.73 38.96,0 74.81,-12.98 103.79,-34.65 24.96,40.78 56.02,77.41 91.93,108.64 2.15,-22.85 4.75,-46.33 7.83,-70.44 10.06,-0.7 20.79,-1.45 32.05,-2.24 l -32.11,2.24 c 0,0 -48.83,-190.51 -95,-403.44"
         style="fill:#254583;fill-opacity:1;fill-rule:nonzero;stroke:none"
         id="path230" /><path
         d="m 3055.43,248.672 -75.81,20.898 28.21,181.11 75.81,-20.891 -28.21,-181.117"
         style="fill:#872f37;fill-opacity:1;fill-rule:nonzero;stroke:none"
         id="path232" /><path
         d="m 3614.9,198.27 h -78.64 l -19.58,182.101 h 78.64 L 3614.9,198.27"
         style="fill:#872f37;fill-opacity:1;fill-rule:nonzero;stroke:none"
         id="path234" /><path
         d="m 3529.8,207.379 h 95.87 c 3.21,0 5.99,-2.238 6.69,-5.367 l 15.53,-69.903 c 1.62,-7.25 -4.08,-14.109 -11.51,-13.98 -30.84,0.531 -53.35,2.34 -92.2,2.34 -23.9,0 -95.98,-2.489 -128.98,-2.489 -32.29,0 -37.32,32.641 -23.81,35.602 60.59,13.25 106.25,31.527 125.64,48.957 3.5,3.152 8.06,4.84 12.77,4.84"
         style="fill:#17282f;fill-opacity:1;fill-rule:nonzero;stroke:none"
         id="path236" /><path
         d="m 2982.57,278.199 82.79,-22.82 c 3.1,-0.848 5.19,-3.738 5.03,-6.949 l -3.6,-71.52 c -0.37,-7.41 -7.5,-12.57 -14.62,-10.469 -29.73,8.731 -72.4,22.379 -109.93,32.719 -43.89,12.102 -82.46,20.149 -133.93,34.34 -31.12,8.57 -31.08,42.422 -17.27,41.68 62.88,-3.371 111.69,-15.328 171.64,2.152 6.52,1.887 13.35,2.668 19.89,0.867"
         style="fill:#17282f;fill-opacity:1;fill-rule:nonzero;stroke:none"
         id="path238" /><path
         d="m 3292.21,2583.38 c -29.08,-50.47 -59.52,-98.44 -91.87,-146.29 -32.46,-47.6 -66.69,-94.26 -104.47,-139.76 -9.94,-11.25 -19.28,-22.56 -29.95,-33.66 l -7.8,-8.34 -4.17,-4.43 c -3.39,-3.46 -6.97,-6.65 -10.63,-9.32 -14.81,-10.83 -29.01,-14.95 -40.76,-17.26 -23.75,-3.99 -41.61,-1.79 -58.64,0.58 -16.86,2.56 -32.24,6.65 -47.13,11.14 -59.14,18.45 -110.76,44.07 -161.51,74.79 l 24.44,53.74 c 52.74,-14.52 107.36,-29.02 158.23,-36.83 12.65,-1.83 25.09,-3.01 36.35,-3.42 11,-0.39 21.78,0.74 25.76,2.63 2,0.68 1.4,1.58 -2.17,-0.6 -0.81,-0.56 -1.85,-1.29 -2.77,-2.23 l 2.84,3.52 6.18,7.59 c 8.31,9.85 16.24,20.94 24.35,31.43 32.04,43.42 62.68,89.46 92.58,136.12 29.92,46.5 59.74,94.21 88.36,140.95 l 102.78,-60.35"
         style="fill:#872f37;fill-opacity:1;fill-rule:nonzero;stroke:none"
         id="path240" /><path
         d="m 3321.23,2641.11 c 28.81,-69.44 -121.96,-271.6 -121.96,-271.6 l -152.64,93.43 c 0,0 45.78,99.38 95.98,182.68 34.4,57.07 146.1,73.88 178.62,-4.51"
         style="fill:#406fbf;fill-opacity:1;fill-rule:nonzero;stroke:none"
         id="path242" /><path
         d="m 3137.39,2407.39 -19.99,12.23 v 0 l 19.99,-12.23"
         style="fill:#682329;fill-opacity:1;fill-rule:nonzero;stroke:none"
         id="path244" /><path
         d="m 3139.79,2405.92 -2.4,1.47 -19.99,12.23 c 8.3,28.31 21.57,69.17 38.94,108.07 -6.51,-34.99 -12.39,-75.59 -16.55,-121.77"
         style="fill:#3563b7;fill-opacity:1;fill-rule:nonzero;stroke:none"
         id="path246" /><path
         d="m 2748.89,2368.03 -64.17,21.48 33.89,-99.07 c 0,0 36.62,-4.59 64.86,23.31 l -3.95,25.87 c -2.35,15.45 -15.06,27.22 -30.63,28.41"
         style="fill:#872f37;fill-opacity:1;fill-rule:nonzero;stroke:none"
         id="path248" /><path
         d="m 2646.11,2369.51 -17.36,-57.66 89.86,-21.41 -33.89,99.07 -38.61,-20"
         style="fill:#872f37;fill-opacity:1;fill-rule:nonzero;stroke:none"
         id="path250" /><path
         d="m 3069.13,336.371 -0.04,0.008 2.82,18.109 0.04,-0.008 -2.82,-18.109"
         style="fill:#c3c5c2;fill-opacity:1;fill-rule:nonzero;stroke:none"
         id="path252" /><path
         d="m 3069.09,336.379 -75.81,20.902 2.82,18.071 75.81,-20.864 -2.82,-18.109"
         style="fill:#682329;fill-opacity:1;fill-rule:nonzero;stroke:none"
         id="path254" /><path
         d="m 3605.47,286.461 h -0.06 l -1.95,18.18 h 0.05 l 1.96,-18.18"
         style="fill:#c3c5c2;fill-opacity:1;fill-rule:nonzero;stroke:none"
         id="path256" /><path
         d="m 3605.41,286.461 h -78.61 l -1.96,18.18 h 78.62 l 1.95,-18.18"
         style="fill:#682329;fill-opacity:1;fill-rule:nonzero;stroke:none"
         id="path258" /><path
         d="m 3641.75,2662.62 c -24.26,-86.89 -39.76,-175.39 -49.97,-258.67 -7.43,-60.93 -11.9,-119.08 -14.67,-171.82 -6.54,-123.6 -3.82,-217.84 -7.5,-249.76 -61.49,4.26 -293.21,20.38 -419.55,29.22 -51.27,401.39 31.32,628.16 48.81,670.49 1.89,4.57 5.96,7.83 10.83,8.69 15.36,2.73 51.9,8.61 92.75,11 7.11,0.46 14.34,0.7 21.68,0.85 47.52,1.01 124.98,-6.12 178.38,-12.41 11.23,-1.34 22.58,-2.98 33.62,-4.76 56.18,-9.15 105.62,-22.83 105.62,-22.83"
         style="fill:#406fbf;fill-opacity:1;fill-rule:nonzero;stroke:none"
         id="path260" /><path
         d="m 3587.74,2367.64 c -0.02,0.04 -0.05,0.08 -0.07,0.12 1.26,11.94 2.62,24.01 4.11,36.19 1.14,9.27 2.34,18.61 3.61,28 -1.27,-9.4 -2.47,-18.75 -3.61,-28.03 -1.48,-12.21 -2.86,-24.3 -4.04,-36.28 m 7.67,64.44 c 0.03,0.24 0.07,0.48 0.1,0.73 -0.03,-0.24 -0.07,-0.49 -0.1,-0.73 m 0.17,1.24 c 0.01,0.11 0.03,0.21 0.04,0.32 -0.01,-0.11 -0.03,-0.21 -0.04,-0.32 m 0.64,4.68 c 0.02,0.17 0.05,0.32 0.07,0.49 -0.02,-0.16 -0.05,-0.32 -0.07,-0.49 m 0.1,0.68 c 4.83,34.87 10.65,70.46 17.69,106.31 l 0.16,-0.01 c -7.17,-35.86 -13.02,-71.46 -17.85,-106.3"
         style="fill:#c3c5c2;fill-opacity:1;fill-rule:nonzero;stroke:none"
         id="path262" /><path
         d="m 3587.67,2367.76 c -32.73,52.05 -52.1,111.43 -51.87,181.69 l 78.21,-4.46 c -7.04,-35.85 -12.86,-71.44 -17.69,-106.31 -0.01,-0.07 -0.02,-0.13 -0.03,-0.19 -0.02,-0.17 -0.05,-0.32 -0.07,-0.49 -0.2,-1.45 -0.4,-2.91 -0.6,-4.36 -0.01,-0.11 -0.03,-0.21 -0.04,-0.32 -0.02,-0.17 -0.05,-0.34 -0.07,-0.51 -0.03,-0.25 -0.07,-0.49 -0.1,-0.73 -0.01,-0.05 -0.01,-0.09 -0.02,-0.13 -1.27,-9.39 -2.47,-18.73 -3.61,-28 -1.49,-12.18 -2.85,-24.25 -4.11,-36.19"
         style="fill:#3563b7;fill-opacity:1;fill-rule:nonzero;stroke:none"
         id="path264" /><path
         d="m 3498.83,2892.27 c -15.25,-56.61 -33.82,-160.97 3.66,-202.06 -31.56,-28.26 -76.96,-51.01 -141.33,-45.12 -49.29,4.52 -49.37,39.21 -37.03,57.56 65.06,10.81 66.72,58.41 58.69,103.78 l 116.01,85.84"
         style="fill:#872f37;fill-opacity:1;fill-rule:nonzero;stroke:none"
         id="path266" /><path
         d="m 3386.16,2774.43 c 0,0.77 -0.01,1.53 -0.02,2.3 0.02,-0.77 0.03,-1.53 0.04,-2.3 0,0 -0.01,0 -0.02,0 m -3.29,32.03 c 0,0.01 0,0.01 0,0.01 l 12.19,9.01 -12.19,-9.02"
         style="fill:#c3c5c2;fill-opacity:1;fill-rule:nonzero;stroke:none"
         id="path268" /><path
         d="m 3386.18,2774.43 c -0.01,0.77 -0.02,1.53 -0.04,2.3 -0.19,9.74 -1.47,19.78 -3.27,29.73 l 12.19,9.02 56.47,41.76 c 1.67,-6.09 1.35,-18.4 -0.84,-31.07 -4.38,-25.42 -39.82,-49.9 -64.51,-51.74"
         style="fill:#682329;fill-opacity:1;fill-rule:nonzero;stroke:none"
         id="path270" /><path
         d="m 3511.69,2978.15 c -10.2,-77.37 -12.23,-123.17 -54.26,-160.32 -63.22,-55.87 -156.66,-13.59 -169.79,65.27 -11.81,70.98 6.85,185.58 85.07,211.2 77.06,25.24 149.17,-38.77 138.98,-116.15"
         style="fill:#872f37;fill-opacity:1;fill-rule:nonzero;stroke:none"
         id="path272" /><path
         d="m 3496.33,2910 c -30.71,24.52 -43.33,187.47 31.92,180.46 64.17,-5.98 134.6,-89.95 -31.92,-180.46"
         style="fill:#17282f;fill-opacity:1;fill-rule:nonzero;stroke:none"
         id="path274" /><path
         d="m 3510,3046.73 c -97.22,-26.11 -303.94,42.45 -247.78,101.11 75,78.33 211.11,-41.11 247.78,-101.11"
         style="fill:#17282f;fill-opacity:1;fill-rule:nonzero;stroke:none"
         id="path276" /><path
         d="m 3551.44,3026.25 c -78.59,11.43 -241.63,163.61 -157,171.6 106.65,10.07 149.16,-116.68 157,-171.6"
         style="fill:#17282f;fill-opacity:1;fill-rule:nonzero;stroke:none"
         id="path278" /><path
         d="m 3536.88,3071.82 -0.77,0.06 c -2.73,0.42 -4.6,2.98 -4.17,5.71 0.05,0.32 4.93,33.05 -6.14,71.44 -0.76,2.65 0.77,5.42 3.42,6.19 2.64,0.76 5.43,-0.77 6.19,-3.42 11.71,-40.63 6.63,-74.35 6.41,-75.76 -0.39,-2.47 -2.52,-4.22 -4.94,-4.22"
         style="fill:#17282f;fill-opacity:1;fill-rule:nonzero;stroke:none"
         id="path280" /><path
         d="m 3540.81,2890.05 c -12.28,-17.09 -31.3,-26.93 -48.4,-29.46 -25.73,-3.8 -35.35,20 -25.48,42.58 8.89,20.33 32.98,46.8 57.5,40.27 24.16,-6.45 30.4,-33.84 16.38,-53.39"
         style="fill:#872f37;fill-opacity:1;fill-rule:nonzero;stroke:none"
         id="path282" /><path
         d="m 2969.7,382.621 128.38,-35.32 c 0,0 91.78,492.679 114.79,736.629 7.01,74.21 26.64,177.57 51.31,288.17 31.15,139.36 70.22,290.03 102.21,408.03 33.75,124.27 59.44,212.23 59.44,212.23 L 3150,2011.59 c 0,0 -167.17,-652.09 -175.3,-891.95 -8.49,-249.39 -5,-737.019 -5,-737.019"
         style="fill:#406fbf;fill-opacity:1;fill-rule:nonzero;stroke:none"
         id="path284" /><path
         d="m 3098.08,347.301 -26.17,7.187 -75.81,20.864 -26.4,7.269 c 0,0 -0.71,99.039 -0.71,230.688 0,49.011 0.1,102.562 0.36,157.179 76.54,0.371 148.3,21.063 210.13,56.942 -0.77,-5.051 -1.54,-10.129 -2.32,-15.2 -10.95,-71.519 -22.85,-144.121 -34.01,-210.019 -2.86,-16.891 -5.68,-33.383 -8.42,-49.25 -6.47,-37.563 -12.51,-71.891 -17.75,-101.332 -0.15,-0.84 -0.29,-1.668 -0.44,-2.5 -6.71,-37.668 -12.06,-67.027 -15.24,-84.348 -0.15,-0.859 -0.31,-1.699 -0.46,-2.5 -1.78,-9.711 -2.76,-14.98 -2.76,-14.98 m 162.57,1151.839 c -56,53.83 -126.78,92.4 -205.65,109.01 46.17,212.93 95,403.44 95,403.44 l 275.83,-19.23 v 0 -0.01 l -127.01,8.86 v 0 c 0,0 3.86,-87.11 10.33,-209.26 -30.77,-73.98 -45.75,-190.04 -48.5,-292.81"
         style="fill:#b4ceee;fill-opacity:1;fill-rule:nonzero;stroke:none"
         id="path286" /><path
         d="m 3287.16,1471.25 c -8.42,9.7 -17.25,19 -26.51,27.89 2.75,102.77 17.73,218.83 48.5,292.81 3.03,-57.04 6.62,-121.7 10.67,-188.73 -11.01,-43.2 -22.05,-87.64 -32.66,-131.97"
         style="fill:#8ba3c9;fill-opacity:1;fill-rule:nonzero;stroke:none"
         id="path288" /><path
         d="m 3298.82,2001.21 c 0,0 29.77,-673.22 62.97,-901.22 36.35,-249.67 128.68,-795.349 128.68,-795.349 h 144.02 c 0,0 -41.04,519.859 -68.7,764.309 -31.5,278.45 3.77,913.37 3.77,913.37 l -270.74,18.89"
         style="fill:#406fbf;fill-opacity:1;fill-rule:nonzero;stroke:none"
         id="path290" /><path
         d="m 3634.49,304.641 h -144.02 c 0,0 -82.66,488.5 -122.35,752.589 14.62,42.88 22.54,88.83 22.54,136.66 0,78.11 -21.15,151.28 -58.04,214.08 -4.6,64.1 -8.91,130.78 -12.8,195.25 -4.05,67.03 -7.64,131.69 -10.67,188.73 -6.47,122.15 -10.33,209.26 -10.33,209.26 l 270.74,-18.89 c 0,0 -16.86,-303.52 -16.86,-582.88 0.01,-124.69 3.37,-244.56 13.09,-330.49 27.66,-244.45 68.7,-764.309 68.7,-764.309"
         style="fill:#b4ceee;fill-opacity:1;fill-rule:nonzero;stroke:none"
         id="path292" /><path
         d="m 3473.23,301.52 h 169.59 v 50.671 l -189.58,3.297 19.99,-53.968"
         style="fill:#406fbf;fill-opacity:1;fill-rule:nonzero;stroke:none"
         id="path294" /><path
         d="m 2952.76,384.07 152.97,-42.16 13.62,49.418 -170.28,49.731 3.69,-56.989"
         style="fill:#406fbf;fill-opacity:1;fill-rule:nonzero;stroke:none"
         id="path296" /><path
         d="m 3392.31,2964.66 c -0.45,-6.33 -4.16,-11.22 -8.29,-10.94 -4.14,0.3 -7.13,5.66 -6.69,11.98 0.44,6.33 4.15,11.23 8.29,10.94 4.13,-0.29 7.13,-5.66 6.69,-11.98"
         style="fill:#17282f;fill-opacity:1;fill-rule:nonzero;stroke:none"
         id="path298" /><path
         d="m 3320.79,2969.65 c -0.44,-6.33 -4.15,-11.22 -8.29,-10.93 -4.13,0.28 -7.13,5.65 -6.69,11.98 0.44,6.32 4.15,11.22 8.29,10.93 4.14,-0.29 7.13,-5.65 6.69,-11.98"
         style="fill:#17282f;fill-opacity:1;fill-rule:nonzero;stroke:none"
         id="path300" /><path
         d="m 3343.31,2964.91 c 0,0 -16.94,-35.49 -34.01,-52 10.47,-11.23 29.83,-7.78 29.83,-7.78 l 4.18,59.78"
         style="fill:#6b1317;fill-opacity:1;fill-rule:nonzero;stroke:none"
         id="path302" /><path
         d="m 3416.13,2986.23 c -1.35,-0.15 -2.74,0.45 -3.53,1.67 -9.07,13.92 -22.8,14.06 -22.93,14.06 -2.06,0 -3.73,1.68 -3.73,3.73 0,2.05 1.58,3.75 3.72,3.73 0.73,0 17.93,-0.19 29.18,-17.45 1.13,-1.72 0.64,-4.04 -1.08,-5.15 l -1.63,-0.59"
         style="fill:#17282f;fill-opacity:1;fill-rule:nonzero;stroke:none"
         id="path304" /><path
         d="m 3366.82,2874.24 h 0.04 c 32.1,1.49 45.79,24.19 46.35,25.15 0.56,0.95 0.24,2.18 -0.71,2.74 -0.96,0.57 -2.18,0.25 -2.74,-0.7 -0.13,-0.22 -13.23,-21.79 -43.08,-23.19 -1.11,-0.05 -1.96,-0.99 -1.91,-2.09 0.05,-1.09 0.96,-1.94 2.05,-1.91"
         style="fill:#17282f;fill-opacity:1;fill-rule:nonzero;stroke:none"
         id="path306" /><path
         d="m 3291.85,2996.41 -2.25,0.48 c -1.79,1.02 -2.4,3.3 -1.37,5.08 10.26,17.87 27.41,19.05 28.16,19.06 2.05,0.11 3.81,-1.46 3.92,-3.51 0.11,-2.05 -1.55,-3.82 -3.49,-3.93 -0.58,-0.07 -13.92,-1.05 -22.14,-15.33 -0.61,-1.07 -1.68,-1.72 -2.83,-1.85"
         style="fill:#17282f;fill-opacity:1;fill-rule:nonzero;stroke:none"
         id="path308" /><path
         d="m 3492.11,209.922 c -0.97,0 -1.79,-0.152 -2.42,-0.473 -0.5,-0.258 -1.08,-0.738 -1.17,-2.187 -0.19,-2.961 0.64,-5.172 2.53,-6.762 4.3,-3.609 14.56,-4.109 27.92,-1.418 -8.88,5.129 -20.83,10.84 -26.86,10.84 z m 11.69,-16.281 c -5.99,0 -11.58,1.019 -15.15,4.007 -2.81,2.372 -4.11,5.684 -3.85,9.844 0.19,3.098 1.84,4.578 3.19,5.27 8.73,4.488 34.07,-11.121 36.93,-12.91 l 0.85,-1.883 -1.4,-1.508 c -5.46,-1.313 -13.3,-2.82 -20.57,-2.82"
         style="fill:#406fbf;fill-opacity:1;fill-rule:nonzero;stroke:none"
         id="path310" /><path
         d="m 3508.06,228.289 -0.84,-0.051 c -2.42,-0.297 -2.63,-1.406 -2.72,-1.886 -0.99,-5.172 9.03,-18.192 17.12,-24.34 -0.91,6.629 -3.42,19.859 -9.28,24.636 -1.34,1.102 -2.75,1.641 -4.28,1.641 z m 15.87,-31.879 -0.89,0.219 c -8.14,4.422 -23.87,21.66 -22.21,30.422 0.3,1.59 1.48,4.34 5.93,4.879 2.87,0.351 5.56,-0.438 7.94,-2.391 9.13,-7.469 11.01,-30.16 11.09,-31.117 l -0.85,-1.711 -1.01,-0.301"
         style="fill:#406fbf;fill-opacity:1;fill-rule:nonzero;stroke:none"
         id="path312" /><path
         d="m 2934.99,293.461 -0.53,-0.09 c -0.83,-0.199 -1.33,-0.68 -1.66,-1.601 -0.85,-2.379 -0.67,-4.461 0.57,-6.372 3.53,-5.406 15.8,-9.578 33.31,-11.406 -10.56,9.137 -25.56,20.129 -31.69,19.469 z m 37.31,-23.672 -0.33,-0.008 c -12.89,0.93 -35.44,3.938 -41.72,13.59 -1.89,2.91 -2.21,6.16 -0.95,9.66 0.75,2.09 2.23,3.461 4.28,3.957 10.53,2.473 36.83,-21.258 39.78,-23.988 l 0.45,-2.109 -1.51,-1.102"
         style="fill:#406fbf;fill-opacity:1;fill-rule:nonzero;stroke:none"
         id="path314" /><path
         d="m 2958.33,306.031 c -1.44,-0.16 -1.77,-0.883 -1.9,-1.172 -2.25,-4.918 6.52,-21.187 14.31,-29.379 0.67,6.239 1.33,19.2 -3.57,26.141 -1.7,2.418 -3.89,3.82 -6.68,4.289 -0.91,0.16 -1.61,0.18 -2.16,0.121 z m 13.97,-36.242 -1.38,0.41 c -8.02,6.633 -21.63,28.02 -17.88,36.211 0.88,1.922 3.02,4.031 8.07,3.18 3.77,-0.641 6.83,-2.602 9.11,-5.828 7.46,-10.582 3.87,-31.563 3.71,-32.442 l -1.18,-1.429 -0.45,-0.102"
         style="fill:#406fbf;fill-opacity:1;fill-rule:nonzero;stroke:none"
         id="path316" /><path
         d="m 3653.59,2620.13 c 37,-46.4 70.16,-93.18 101.88,-142.51 31.52,-49.27 60.88,-100.17 86.11,-155.54 7.34,-15.72 9.45,-31.49 9.16,-44.15 -0.23,-12.88 -2.36,-23.76 -5.05,-33.53 -5.47,-19.44 -12.95,-35.01 -20.77,-49.68 -15.82,-28.96 -34.2,-53.3 -53.02,-76.75 -38.17,-46.46 -79.43,-87.01 -124.6,-125.26 l -42.39,41.1 c 16.21,22.08 33.17,44.78 48.75,67.64 15.86,22.76 31.27,45.63 45.29,68.69 14.15,22.84 26.92,46.32 36.27,68.39 4.54,10.91 8.04,21.75 9.25,29.98 0.6,4.05 0.61,7.32 0.34,8.67 -0.22,1.54 -0.92,0.07 0.32,-2.8 -12.88,23.09 -27.21,46.2 -41.77,69.23 -14.97,22.91 -30.37,45.74 -46.08,68.49 -31.64,45.11 -64.77,90.84 -97.39,134.36 l 93.7,73.67"
         style="fill:#872f37;fill-opacity:1;fill-rule:nonzero;stroke:none"
         id="path318" /><path
         d="m 3639.33,2663 c 71.9,-21.97 143.41,-195.03 143.41,-195.03 l -127.76,-131.59 c 0,0 -76.16,99.17 -120.22,185.78 -47.99,94.33 17.47,167.46 104.57,140.84"
         style="fill:#406fbf;fill-opacity:1;fill-rule:nonzero;stroke:none"
         id="path320" /><path
         d="m 3632.41,2044.25 -79.8,2.4 39.13,-92.51 c 0,0 68.39,13.04 65.53,50.04 l -24.86,40.07"
         style="fill:#872f37;fill-opacity:1;fill-rule:nonzero;stroke:none"
         id="path322" /><path
         d="m 3499.44,2008.08 35.92,-74.95 56.38,21.01 -39.13,92.51 -53.17,-38.57"
         style="fill:#872f37;fill-opacity:1;fill-rule:nonzero;stroke:none"
         id="path324" /><path
         d="m 1603.68,2129.63 -4.81,8.77 c 20.73,11.38 42.25,21.91 63.97,31.29 l 3.96,-9.18 c -21.43,-9.26 -42.66,-19.65 -63.12,-30.88"
         style="fill:#406fbf;fill-opacity:1;fill-rule:nonzero;stroke:none"
         id="path326" /><path
         d="m 1432.72,2000.7 -7.1,7.03 c 36.12,36.51 76.21,69.47 119.15,97.96 l 5.53,-8.34 c -42.38,-28.1 -81.93,-60.62 -117.58,-96.65"
         style="fill:#406fbf;fill-opacity:1;fill-rule:nonzero;stroke:none"
         id="path328" /><path
         d="m 1329.85,1847.11 c 5.08,0 10.11,-0.25 15.15,-0.39 124.23,209.1 352.24,349.31 613.1,349.31 257.49,0 483.05,-136.57 608.31,-341.19 44.41,33.2 99.35,53.1 159.06,53.1 147.03,0 266.23,-119.19 266.23,-266.22 0,-8.47 -0.49,-16.82 -1.27,-25.09 223.06,-12.03 400.23,-196.68 400.23,-422.74 0,-233.839 -189.56,-423.41 -423.4,-423.41 H 1329.85 c -297.29,0 -538.303,241.02 -538.303,538.32 0,297.3 241.013,538.31 538.303,538.31"
         style="fill:#406fbf;fill-opacity:1;fill-rule:nonzero;stroke:none"
         id="path330" /><g
         id="g332"><g
           id="g334"
           clip-path="url(#clipPath338)"><path
             d="m 2189.73,1854.84 h 613.301 v 399.801 H 2189.73 Z"
             style="fill:#c3c5c2;fill-opacity:1;fill-rule:nonzero;stroke:none"
             id="path340" /></g></g><path
         d="m 2427.21,2019.86 c -0.84,0.73 -1.67,1.45 -2.5,2.18 v 176.45 l 2.5,0.44 v -179.07"
         style="fill:#b1b3b1;fill-opacity:1;fill-rule:nonzero;stroke:none"
         id="path342" /><path
         d="m 2547.55,1884.03 c -0.83,1.22 -1.66,2.44 -2.5,3.65 v 331.79 l 2.5,0.43 v -335.87"
         style="fill:#b1b3b1;fill-opacity:1;fill-rule:nonzero;stroke:none"
         id="path344" /><path
         d="m 2809.65,1894.36 c -7.72,2.57 -15.59,4.8 -23.6,6.66 4.6,11.05 10.31,21.53 16.98,31.29 l 6.62,-37.95"
         style="fill:#213664;fill-opacity:1;fill-rule:nonzero;stroke:none"
         id="path346" /><path
         d="m 2248.42,1105.23 c -27.95,0 -52.7,20.07 -57.66,48.55 l -169.83,974.33 168.8,29.43 c 87.19,-29.96 166.77,-76.37 234.98,-135.5 0.83,-0.73 1.66,-1.45 2.5,-2.18 44.52,-38.96 84.14,-83.36 117.84,-132.18 0.84,-1.21 1.67,-2.43 2.5,-3.65 6.52,-9.56 12.81,-19.29 18.86,-29.19 44.41,33.2 99.35,53.1 159.06,53.1 20.84,0 41.12,-2.39 60.58,-6.92 v 0 c 8.01,-1.86 15.88,-4.09 23.6,-6.66 l 107.03,-614.05 c 5.56,-31.89 -15.78,-62.24 -47.67,-67.8 l -610.46,-106.4 c -3.4,-0.59 -6.79,-0.88 -10.13,-0.88"
         style="fill:#3563b7;fill-opacity:1;fill-rule:nonzero;stroke:none"
         id="path348" /><path
         d="m 3014.29,1402.04 -227.2,892.53 -226.27,73.07 -519.06,-132.13 c -23.09,-5.87 -37.03,-29.35 -31.16,-52.43 l 247.8,-973.46 c 5.87,-23.08 29.35,-37.03 52.43,-31.15 l 672.3,171.13 c 23.09,5.88 37.04,29.35 31.16,52.44"
         style="fill:#ffffff;fill-opacity:1;fill-rule:nonzero;stroke:none"
         id="path350" /><path
         d="m 2560.49,2357.15 -516.24,-131.41 c -8.56,-2.18 -15.75,-7.56 -20.26,-15.14 -4.51,-7.59 -5.79,-16.48 -3.61,-25.03 l 247.79,-973.46 c 2.18,-8.55 7.56,-15.75 15.14,-20.26 7.59,-4.5 16.48,-5.79 25.03,-3.61 l 672.31,171.14 c 8.55,2.17 15.74,7.55 20.25,15.14 4.51,7.59 5.79,16.47 3.61,25.03 l -225.82,887.14 z M 2300.2,1167.04 c -23.75,0 -45.46,16.04 -51.58,40.09 l -247.79,973.46 c -3.51,13.78 -1.44,28.09 5.82,40.31 7.26,12.22 18.85,20.88 32.62,24.39 l 519.06,132.13 c 1.85,0.46 3.78,0.41 5.59,-0.18 l 226.28,-73.07 c 3.29,-1.06 5.81,-3.75 6.67,-7.11 l 227.19,-892.54 c 3.51,-13.77 1.44,-28.09 -5.82,-40.31 -7.26,-12.22 -18.84,-20.88 -32.62,-24.38 l -672.3,-171.14 c -4.39,-1.12 -8.79,-1.65 -13.12,-1.65"
         style="fill:#406fbf;fill-opacity:1;fill-rule:nonzero;stroke:none"
         id="path352" /><path
         d="m 2787.09,2294.57 -226.27,73.07 112.86,-118.46 c 16.07,-16.86 42.62,-17.92 59.98,-2.39 l 53.43,47.78"
         style="fill:#dadbd8;fill-opacity:1;fill-rule:nonzero;stroke:none"
         id="path354" /><path
         d="m 2595.52,2345.84 85.47,-89.7 c 12.38,-13 32.57,-13.81 45.95,-1.84 l 40.33,36.08 z m 109.38,-120.22 c -14.04,0 -28.02,5.58 -38.52,16.6 l -112.86,118.46 c -3.19,3.35 -3.7,8.42 -1.24,12.33 2.45,3.91 7.25,5.65 11.64,4.23 l 226.28,-73.07 c 3.43,-1.11 6.01,-3.97 6.76,-7.51 0.75,-3.53 -0.45,-7.2 -3.14,-9.6 l -53.43,-47.79 c -10.21,-9.13 -22.88,-13.65 -35.49,-13.65"
         style="fill:#406fbf;fill-opacity:1;fill-rule:nonzero;stroke:none"
         id="path356" /><path
         d="m 2532.49,1597.22 106.86,104.23 11.81,-46.39 c 58.2,25.6 91.21,90.36 75.02,153.96 -18.03,70.82 -90.3,113.76 -161.12,95.74 l -12.31,48.36 c 97.48,24.81 196.98,-34.31 221.79,-131.79 22.99,-90.31 -26.09,-182.31 -110.95,-215.09 l 12.59,-49.47 -143.69,40.45"
         style="fill:#406fbf;fill-opacity:1;fill-rule:nonzero;stroke:none"
         id="path358" /><path
         d="m 2509.94,1918.98 -106.86,-104.23 -11.81,46.39 c -58.19,-25.6 -91.21,-90.36 -75.02,-153.96 18.03,-70.81 90.31,-113.76 161.12,-95.73 l 12.31,-48.37 c -97.48,-24.81 -196.97,34.31 -221.79,131.79 -22.99,90.32 26.1,182.31 110.95,215.09 l -12.59,49.47 143.69,-40.45"
         style="fill:#406fbf;fill-opacity:1;fill-rule:nonzero;stroke:none"
         id="path360" /></g></g></svg>
