<?xml version="1.0" encoding="UTF-8" standalone="no"?>
<svg
   xmlns:dc="http://purl.org/dc/elements/1.1/"
   xmlns:cc="http://creativecommons.org/ns#"
   xmlns:rdf="http://www.w3.org/1999/02/22-rdf-syntax-ns#"
   xmlns:svg="http://www.w3.org/2000/svg"
   xmlns="http://www.w3.org/2000/svg"
   xmlns:sodipodi="http://sodipodi.sourceforge.net/DTD/sodipodi-0.dtd"
   xmlns:inkscape="http://www.inkscape.org/namespaces/inkscape"
   version="1.1"
   id="svg2"
   xml:space="preserve"
   width="1466.6667"
   height="1066.6667"
   viewBox="0 0 1466.6667 1066.6667"
   sodipodi:docname="66205.eps"><metadata
     id="metadata8"><rdf:RDF><cc:Work
         rdf:about=""><dc:format>image/svg+xml</dc:format><dc:type
           rdf:resource="http://purl.org/dc/dcmitype/StillImage" /></cc:Work></rdf:RDF></metadata><defs
     id="defs6" /><sodipodi:namedview
     pagecolor="#ffffff"
     bordercolor="#666666"
     borderopacity="1"
     objecttolerance="10"
     gridtolerance="10"
     guidetolerance="10"
     inkscape:pageopacity="0"
     inkscape:pageshadow="2"
     inkscape:window-width="640"
     inkscape:window-height="480"
     id="namedview4" /><g
     id="g10"
     inkscape:groupmode="layer"
     inkscape:label="ink_ext_XXXXXX"
     transform="matrix(1.3333333,0,0,-1.3333333,0,1066.6667)"><g
       id="g12"
       transform="scale(0.1)"><path
         d="M 0,0 H 11000 V 8000 H 0 Z"
         style="fill:#ffffff;fill-opacity:1;fill-rule:nonzero;stroke:none"
         id="path14" /><path
         d="m 5652.43,823.648 c -1037.81,0 -2077.34,10.883 -3115.19,20.832 -10.72,0.11 -21.87,0.149 -33.44,0.149 -62.98,0 -138.18,-1.391 -220.78,-2.789 -82.66,-1.399 -172.67,-2.801 -265.37,-2.789 -367.26,0 -775.66,21.949 -926.18,152.801 -53.31,46.348 -66.28,110.968 -15.78,158.388 28.14,26.42 74.3,47.26 86.58,77.58 61.91,152.92 -543.055,140.51 -314.29,342.74 144.993,128.17 895.66,110.19 1124.37,116.74 452.31,12.98 870.74,61.36 1328.41,66.85 325.71,3.91 651.44,9.41 976.97,12.69 874.88,8.81 1749.75,15.12 2624.81,15.12 219.03,0 438.23,-0.4 657.26,-1.25 482.31,-1.87 965.25,-5.87 1446.04,-26.8 261.9,-11.4 526.84,-5.78 784.39,-41.69 252.17,-35.17 524.97,-142.61 643.07,-281.71 107.4,-126.54 -104.4,-141.18 -145.4,-215.04 -127.6,-229.841 258.2,-108.95 256.1,-224.111 -0.8,-45.5 -254.6,-65.796 -457.3,-73.578 C 9643.56,900.75 9201.13,882.492 8756.13,868.031 7724.79,834.512 6689.47,823.648 5652.43,823.648"
         style="fill:#ebebeb;fill-opacity:1;fill-rule:nonzero;stroke:none"
         id="path16" /><path
         d="m 2203.76,5219.07 -1432.018,65.08 2.121,46.74 1432.017,-65.08 -2.12,-46.74"
         style="fill:#9ea6ad;fill-opacity:1;fill-rule:nonzero;stroke:none"
         id="path18" /><path
         d="m 2186.12,5228.4 -1039.69,1384.8 37.41,28.09 1039.68,-1384.81 -37.4,-28.08"
         style="fill:#9ea6ad;fill-opacity:1;fill-rule:nonzero;stroke:none"
         id="path20" /><path
         d="m 6408.1,4291.61 6.29,108.23 46.36,2.33 12.1,-74.01 22.08,11.25 -16.66,-92.69 -48.29,-8.91 -21.88,53.8"
         style="fill:#eac5b0;fill-opacity:1;fill-rule:nonzero;stroke:none"
         id="path22" /><path
         d="m 7012.42,3863.15 -343.45,30.14 -169.19,405.54 -93.45,-30.56 88.6,-560.94 536.49,-97.53 -19,253.35"
         style="fill:#1a3151;fill-opacity:1;fill-rule:nonzero;stroke:none"
         id="path24" /><path
         d="m 2098.53,4502.22 -15.72,107.65 -46.55,-1.72 -5.65,-75.03 -23.05,9.31 24.73,-91.21 49.06,-4.7 17.18,55.7"
         style="fill:#b99a6f;fill-opacity:1;fill-rule:nonzero;stroke:none"
         id="path26" /><path
         d="m 1425.75,3973.42 494.49,96.52 86,431.51 96.09,-22.41 -27.47,-599.33 -493.43,-164.75 -155.68,258.46"
         style="fill:#9ea6ad;fill-opacity:1;fill-rule:nonzero;stroke:none"
         id="path28" /><path
         d="m 3477.11,1247.9 c -10.59,11.66 -22.94,18.02 -36.9,15.82 -13.41,-2.11 -25.47,-11.19 -31,-23.35 -3.77,-8.29 -4.56,-17.53 -5.31,-26.57 -3.87,-46.8 -3.52,-157.89 58.81,-173.89 26.2,-6.72 47.86,11.9 54.86,35.41 10.53,35.44 -5.07,133.62 -40.46,172.58"
         style="fill:#1a3151;fill-opacity:1;fill-rule:nonzero;stroke:none"
         id="path30" /><path
         d="m 3499.28,1953.81 -3.27,-285.41 c 3.8,-126.78 -16,-254.26 -12.2,-381.05 0.87,-29.14 8.47,-59.9 1.12,-88.79 -7.18,-28.27 -30.15,-33.26 -53.72,-18.95 -31.59,19.18 -26.5,63.95 -31.76,96.63 -14.45,89.78 -31.4,179.13 -46.49,268.8 -7.4,43.95 7.85,105.57 4.53,150.06 l -46.11,239.19 187.9,19.52"
         style="fill:#eac5b0;fill-opacity:1;fill-rule:nonzero;stroke:none"
         id="path32" /><path
         d="m 3173.18,2414.97 124.22,-551.8 26.38,-521.09 196.97,4.42 53.56,1457.57 -381.83,-6.93 -19.3,-382.17"
         style="fill:#1a3151;fill-opacity:1;fill-rule:nonzero;stroke:none"
         id="path34" /><path
         d="m 3758.84,1258.27 c -11.05,11.05 -23.64,16.68 -37.45,13.65 -13.28,-2.9 -24.91,-12.7 -29.9,-25.19 -3.4,-8.52 -3.8,-17.81 -4.16,-26.91 -1.85,-47.06 3.25,-158.22 66.05,-170.55 26.4,-5.18 47.2,14.72 53.16,38.68 8.99,36.08 -10.76,133.41 -47.7,170.32"
         style="fill:#1a3151;fill-opacity:1;fill-rule:nonzero;stroke:none"
         id="path36" /><path
         d="m 3655.02,1913.74 16.71,-284.95 c 1.37,-79.19 11.92,-157.76 20.12,-236.42 7.61,-73.05 -4.24,-149.15 33.94,-215.6 11.98,-20.83 36.18,-34.71 53.09,-9.4 13.03,19.51 5.29,52.06 7.79,74.19 10.21,90.35 22.93,180.4 33.77,270.67 5.32,44.25 -12.81,105.08 -11.6,149.68 l 34.79,241.08 -188.61,10.75"
         style="fill:#eac5b0;fill-opacity:1;fill-rule:nonzero;stroke:none"
         id="path38" /><path
         d="m 3904.28,2448.71 16.03,-535.63 -84.06,-541.66 -200.36,-6 8.84,586.21 -106.02,486.14 -35.59,318.22 317.92,37.5 83.24,-344.78"
         style="fill:#1a3151;fill-opacity:1;fill-rule:nonzero;stroke:none"
         id="path40" /><path
         d="m 3652.78,3889.69 -342.5,8.18 -198.59,-369.33 70.59,-345.92 12.57,-413.98 488.56,-6.66 160.76,26.1 -42.68,442.32 24.47,590.86 -173.18,68.43"
         style="fill:#c7e3f2;fill-opacity:1;fill-rule:nonzero;stroke:none"
         id="path42" /><path
         d="m 3195.52,2931.68 -15.73,-57.19 80.21,-65.48 62.31,28.11 16.46,67.17 -48.9,18.96 2.06,15.27 -13.35,17.11 -83.06,-23.95"
         style="fill:#eac5b0;fill-opacity:1;fill-rule:nonzero;stroke:none"
         id="path44" /><path
         d="m 3310.67,3884.75 -418.37,-459.09 -62.89,-185.76 342,-358.6 103.72,69.78 -219.3,299.97 209.27,155.12 45.57,478.58"
         style="fill:#c7e3f2;fill-opacity:1;fill-rule:nonzero;stroke:none"
         id="path46" /><path
         d="m 3639.83,3665.91 178.4,-356.65 192.36,-38.23 370.84,313.39 -82.67,93.78 -328.64,-184.13 -174.24,327.19 -156.05,-155.35"
         style="fill:#abadb2;fill-opacity:1;fill-rule:nonzero;stroke:none"
         id="path48" /><path
         d="m 3631.34,4176.65 c -51.64,150.12 -249.81,93.87 -290.67,-39.8 -26.65,-87.19 40.69,-200.34 131.03,-225.38 0.4,-3.43 0.7,-6.64 0.71,-9.36 0.06,-13.99 1.78,-27.79 3.86,-41.78 0.77,-5.21 79.84,9.98 88.65,11.72 3.09,0.61 6.53,1.45 8.19,4.03 3.19,4.96 -1.99,19.58 -2.57,25.1 -0.69,6.52 -1.37,13.03 -2.05,19.53 44.56,21.76 72.68,68.09 80.53,115.26 7.89,47.38 -2.17,95.57 -17.68,140.68"
         style="fill:#eac5b0;fill-opacity:1;fill-rule:nonzero;stroke:none"
         id="path50" /><path
         d="m 3502.04,4312.3 c -10.62,-10.79 -14.8,-25.84 -17.86,-40.28 -1.83,-8.63 -3.41,-17.56 -1.56,-26.1 7.36,-34.08 41.16,-32.3 67.3,-43.28 32.23,-13.55 60.03,-38.49 78.08,-67.21 28.26,-44.97 15.54,-102.84 4.08,-152.45 -4.04,-17.48 -12.17,-43.48 1.39,-59.06 13.78,-15.85 45.62,-13.4 62.12,-5.25 15.08,7.44 27.46,21.22 44.02,24 17.52,2.93 41.2,-4.77 49.35,11.3 2.28,4.48 2.49,9.95 5.35,14.04 9.68,13.85 33.76,-2.37 47.41,7.39 8.39,6.01 8.33,18.8 5.49,28.92 -2.84,10.12 -7.62,20.38 -5.64,30.68 1.7,8.85 8.09,15.84 12.03,23.9 7.79,15.89 5.1,36.61 -6.5,50.05 -21.58,24.96 -63.34,20.22 -86.45,43.71 -12.05,12.23 -16.71,29.88 -21.2,46.59 -4.49,16.7 -9.88,34.3 -22.76,45.62 -15.9,13.99 -38.87,11.61 -54.56,28.2 -9.22,9.73 -15.36,22.42 -25.71,30.89 -13.64,11.19 -40.3,19.78 -57.26,25.47 -26.91,9.05 -57.01,3.29 -77.12,-17.13"
         style="fill:#000000;fill-opacity:1;fill-rule:nonzero;stroke:none"
         id="path52" /><path
         d="m 3376.69,4072.74 c -0.92,-49.4 23.62,-102.82 0.86,-146.31 -22.97,-43.89 -80.23,-51.8 -129.03,-54.1 -8.03,-0.37 -111.02,-9.26 -111.46,-7.31 -7.71,34.41 -15.68,69.51 -33.67,99.74 -17.98,30.21 -48.06,55.25 -82.5,57.4 9.94,1.72 14.94,13.88 13.8,24.15 -1.15,10.25 -6.46,19.5 -9.53,29.35 -7.55,24.22 -0.21,52.47 18.05,69.5 36.44,33.95 102.49,19.85 133.72,58.85 19.37,24.18 17.06,59.26 27.21,88.79 19.62,57.09 82.13,69.04 128.84,94.82 49.32,27.21 95.76,42.13 152.68,32.64 70.56,-11.75 123.01,-83.59 95.79,-151.2 -34.9,-86.7 -174.44,-79.22 -200.57,-167.25 -2.8,-9.46 -4.01,-19.17 -4.19,-29.07"
         style="fill:#000000;fill-opacity:1;fill-rule:nonzero;stroke:none"
         id="path54" /><path
         d="m 3411.6,3891.65 106.25,-150.18 49.95,4.1 83.25,152.3 -239.45,-6.22"
         style="fill:#b5d6ca;fill-opacity:1;fill-rule:nonzero;stroke:none"
         id="path56" /><path
         d="m 9368.27,6381.61 -1718.87,229.07 6.18,46.37 1718.87,-229.06 -6.18,-46.38"
         style="fill:#9ea6ad;fill-opacity:1;fill-rule:nonzero;stroke:none"
         id="path58" /><path
         d="m 3702.99,3363.71 -1803.68,1691.89 32,34.12 1803.68,-1691.89 -32,-34.12"
         style="fill:#9ea6ad;fill-opacity:1;fill-rule:nonzero;stroke:none"
         id="path60" /><path
         d="m 9880.62,4990.55 -2225.96,1509.43 26.25,38.71 2225.96,-1509.42 -26.25,-38.72"
         style="fill:#9ea6ad;fill-opacity:1;fill-rule:nonzero;stroke:none"
         id="path62" /><path
         d="m 1854.19,2645.45 c -8.2,84.49 -16.71,168.95 -27.1,253.2 -20.74,168.05 -48.96,335.69 -96.7,498.35 -18.24,62.15 -39.29,123.43 -60.32,184.69 -25.61,74.59 -51.23,149.18 -76.84,223.77 -31.84,92.71 -85.57,158.03 -179.66,190.45 -16.8,5.79 -34.48,10.26 -52.71,13.53 -0.45,-1.91 -0.85,-3.85 -1.1,-5.9 -1.09,-8.9 -3.64,-18.77 -9.27,-25.24 l 61.75,-0.59 c 0,0 174.22,-608.84 180.62,-713.77 2.43,-39.9 10.53,-126.97 19.54,-218.71 l 94.6,-13.92 4.06,-350.87 c 5.29,-1.52 10.56,-3 15.79,-4.39 30.02,-7.96 54.44,-29.84 79.38,-47 36.83,-25.34 52.98,-35.37 47.96,16.4"
         style="fill:#9ea6ad;fill-opacity:1;fill-rule:nonzero;stroke:none"
         id="path64" /><path
         d="m 1117.66,3053.49 c 17.22,85.7 30.68,164.79 31.92,207.69 3.71,129.02 20.22,555.11 20.22,555.11 l 80.08,162.98 14.78,-0.15 c -1.06,0.13 -2.12,0.25 -3.19,0.38 1.5,13.92 0.86,25.45 -1.27,35.56 -139.63,-8.4 -282.747,-81.62 -322.805,-217.56 -3.301,-11.2 -5.875,-22.65 -6.809,-34.29 -5.586,-69.84 15.746,-121.43 -4.402,-191.58 -17.508,-60.96 -33.379,-122.81 -45.028,-185.17 -16.863,-90.29 -32.437,-180.14 -44.699,-269.76 -13.582,-99.25 -23.156,-198.21 -25.926,-296.59 -0.308,-10.88 -2.5,-41.29 -3.73,-77.63 -2.571,-76.11 -0.922,-177.92 31.125,-181.72 5.996,-0.71 11.785,1.95 17.062,4.5 41.227,20.03 73.703,46.19 110.055,69.03 l 1.953,397.02 150.664,22.18"
         style="fill:#9ea6ad;fill-opacity:1;fill-rule:nonzero;stroke:none"
         id="path66" /><path
         d="m 1456.04,2733.17 c -6.84,-0.51 -13.82,-1.05 -20.92,-1.61 l -67.78,-651.27 72.86,-947.18 h 0.69 v 14.29 h 121.54 l 154.16,1054.76 -5.53,478.28 c -73.69,21.19 -153.51,53.89 -230.47,53.21 -8.17,-0.08 -16.36,-0.29 -24.55,-0.48"
         style="fill:#9ea6ad;fill-opacity:1;fill-rule:nonzero;stroke:none"
         id="path68" /><path
         d="m 1612.4,3045.23 c 14.25,-145.16 30.78,-302 30.78,-302 0,0 -76.49,-1.8 -187.14,-10.06 8.19,0.19 16.38,0.4 24.55,0.48 76.96,0.68 156.78,-32.02 230.47,-53.21 l -4.06,350.87 -94.6,13.92"
         style="fill:#9ea6ad;fill-opacity:1;fill-rule:nonzero;stroke:none"
         id="path70" /><path
         d="m 1440.89,1133.11 v -50.67 l 129.92,-64.96 64.96,64.96 -64.96,64.96 h -8.38 l -2.09,-14.29 h -119.45"
         style="fill:#1a3151;fill-opacity:1;fill-rule:nonzero;stroke:none"
         id="path72" /><path
         d="m 1440.89,1133.11 h 119.45 l 2.09,14.29 h -121.54 v -14.29"
         style="fill:#1a3151;fill-opacity:1;fill-rule:nonzero;stroke:none"
         id="path74" /><path
         d="m 1265.11,2714.81 c -2.97,-0.35 -5.93,-0.7 -8.91,-1.06 -77.38,-16.56 -127.62,-23.04 -160.24,-24.74 -31.37,-8.22 -61.96,-18.62 -90.59,-32.25 -14.296,-6.81 -27.546,-14.44 -40.327,-22.47 l -0.406,-82.67 147.513,-1404.22 h 120.96 v -14.29 h 0.69 l 132.99,941.88 0.55,5.3 -3.02,39.25 -99.21,595.27"
         style="fill:#9ea6ad;fill-opacity:1;fill-rule:nonzero;stroke:none"
         id="path76" /><path
         d="m 1095.96,2689.01 c -52.75,-2.74 -59.32,7.03 -59.32,7.03 0,0 47.6,191.17 81.02,357.45 l -150.664,-22.18 -1.953,-397.02 c 12.781,8.03 26.031,15.66 40.327,22.47 28.63,13.63 59.22,24.03 90.59,32.25"
         style="fill:#9ea6ad;fill-opacity:1;fill-rule:nonzero;stroke:none"
         id="path78" /><path
         d="m 1265.11,2714.81 99.21,-595.27 3.02,-39.25 67.78,651.27 c -51.58,-4.08 -109.52,-9.53 -170.01,-16.75"
         style="fill:#9ea6ad;fill-opacity:1;fill-rule:nonzero;stroke:none"
         id="path80" /><path
         d="m 1112.15,1147.4 h -8.97 l -64.95,-64.96 64.95,-64.96 129.93,64.96 v 50.67 h -119.46 l -1.5,14.29"
         style="fill:#1a3151;fill-opacity:1;fill-rule:nonzero;stroke:none"
         id="path82" /><path
         d="m 1112.15,1147.4 1.5,-14.29 h 119.46 v 14.29 h -120.96"
         style="fill:#1a3151;fill-opacity:1;fill-rule:nonzero;stroke:none"
         id="path84" /><path
         d="m 1341.7,3972.3 c -5.05,-1.66 -10.52,-1.05 -15.79,-0.43 -20.42,2.43 -40.83,4.84 -61.25,7.25 l -14.78,0.15 -80.08,-162.98 c 0,0 -16.51,-426.09 -20.22,-555.11 -1.24,-42.9 -14.7,-121.99 -31.92,-207.69 l 88.82,13.08 -6.57,39.41 47.82,-7.04 -3.31,5.62 20.15,785.55 -13.01,51.11 c -3.62,14.25 7.15,28.1 21.85,28.1 h 79.93 c 18.66,0 29.23,-21.38 17.91,-36.21 l -32.81,-43 85.81,-791.48 49.83,7.35 -4.14,-39.77 142.46,-20.98 c -9.01,91.74 -17.11,178.81 -19.54,218.71 -6.4,104.93 -180.62,713.77 -180.62,713.77 l -61.75,0.59 -2.15,-2.2 c -1.91,-1.66 -4.1,-2.96 -6.64,-3.8"
         style="fill:#ffffff;fill-opacity:1;fill-rule:nonzero;stroke:none"
         id="path86" /><path
         d="m 1435.12,2731.56 c 7.1,0.56 14.08,1.1 20.92,1.61 -6.93,-0.16 -13.87,-0.36 -20.82,-0.6 l -0.1,-1.01"
         style="fill:#ffffff;fill-opacity:1;fill-rule:nonzero;stroke:none"
         id="path88" /><path
         d="m 1435.22,2732.57 c 6.95,0.24 13.89,0.44 20.82,0.6 110.65,8.26 187.14,10.06 187.14,10.06 0,0 -16.53,156.84 -30.78,302 l -142.46,20.98 -34.72,-333.64"
         style="fill:#ffffff;fill-opacity:1;fill-rule:nonzero;stroke:none"
         id="path90" /><path
         d="m 1247.73,3098.94 -47.82,7.04 6.57,-39.41 55.5,8.18 -14.25,24.19"
         style="fill:#ffffff;fill-opacity:1;fill-rule:nonzero;stroke:none"
         id="path92" /><path
         d="m 1192.29,2708.42 c -32.13,-4.98 -64.63,-11.09 -96.33,-19.41 32.62,1.7 82.86,8.18 160.24,24.74 2.98,0.36 5.94,0.71 8.91,1.06 l -0.65,3.89 c -24.13,-3.02 -48.2,-6.45 -72.17,-10.28"
         style="fill:#ffffff;fill-opacity:1;fill-rule:nonzero;stroke:none"
         id="path94" /><path
         d="m 1415.1,3074.29 54.84,-8.08 4.14,39.77 -49.83,-7.35 1.5,-13.87 -10.65,-10.47"
         style="fill:#ffffff;fill-opacity:1;fill-rule:nonzero;stroke:none"
         id="path96" /><path
         d="m 1264.46,2718.7 -57.98,347.87 -88.82,-13.08 c -33.42,-166.28 -81.02,-357.45 -81.02,-357.45 0,0 6.57,-9.77 59.32,-7.03 31.7,8.32 64.2,14.43 96.33,19.41 23.97,3.83 48.04,7.26 72.17,10.28"
         style="fill:#ffffff;fill-opacity:1;fill-rule:nonzero;stroke:none"
         id="path98" /><path
         d="m 1264.46,2718.7 0.65,-3.89 c 60.49,7.22 118.43,12.67 170.01,16.75 l 0.1,1.01 c -56.9,-2.02 -113.99,-6.75 -170.76,-13.87"
         style="fill:#ffffff;fill-opacity:1;fill-rule:nonzero;stroke:none"
         id="path100" /><path
         d="m 1435.22,2732.57 34.72,333.64 -54.84,8.08 -96.81,-95.15 -56.31,95.61 -55.5,-8.18 57.98,-347.87 c 56.77,7.12 113.86,11.85 170.76,13.87"
         style="fill:#ffffff;fill-opacity:1;fill-rule:nonzero;stroke:none"
         id="path102" /><path
         d="m 1424.25,3098.63 -85.81,791.48 32.81,43 c 11.32,14.83 0.75,36.21 -17.91,36.21 h -79.93 c -14.7,0 -25.47,-13.85 -21.85,-28.1 l 13.01,-51.11 -20.15,-785.55 3.31,-5.62 89.27,-13.15 87.25,12.84"
         style="fill:#b5d6ca;fill-opacity:1;fill-rule:nonzero;stroke:none"
         id="path104" /><path
         d="m 1337,3085.79 -89.27,13.15 14.25,-24.19 z"
         style="fill:#b5d6ca;fill-opacity:1;fill-rule:nonzero;stroke:none"
         id="path106" /><path
         d="m 1415.1,3074.29 10.65,10.47 -1.5,13.87 -87.25,-12.84 78.1,-11.5"
         style="fill:#b5d6ca;fill-opacity:1;fill-rule:nonzero;stroke:none"
         id="path108" /><path
         d="m 1261.98,3074.75 56.31,-95.61 96.81,95.15 -78.1,11.5 -75.02,-11.04"
         style="fill:#b5d6ca;fill-opacity:1;fill-rule:nonzero;stroke:none"
         id="path110" /><path
         d="m 1360.86,4009.44 c 7.98,34.36 45.93,49.83 66.38,80.31 23.17,34.54 35.3,74.79 40.55,115.77 l 0.26,2.1 c -3,-1.64 -6.14,-3.04 -9.42,-4.15 -4.01,16.43 3.7,33.16 7.35,49.68 0.92,4.18 1.09,8.49 0.83,12.86 -29.34,5.06 -58.96,15.96 -80.52,25.38 -44.89,19.6 -132.33,40.48 -178.94,17.33 -36.86,-18.31 -25.54,-76.67 -23.68,-113.57 0.47,-9.5 1.21,-19.16 -0.98,-28.38 -2.25,-9.5 -8.16,-15.92 -11.85,-23.91 4.11,-14.38 10.84,-28.04 21.81,-40.42 29.54,-33.35 59.59,-49.74 67.55,-87.38 34.3,2.06 68.36,0.18 100.66,-5.62"
         style="fill:#b99a6f;fill-opacity:1;fill-rule:nonzero;stroke:none"
         id="path112" /><path
         d="m 1261.47,3979.5 c 1.07,-0.13 2.13,-0.25 3.19,-0.38 l 85.83,-0.82 c 5.63,6.47 8.18,16.34 9.27,25.24 0.25,2.05 0.65,3.99 1.1,5.9 -32.3,5.8 -66.36,7.68 -100.66,5.62 2.13,-10.11 2.77,-21.64 1.27,-35.56"
         style="fill:#b99a6f;fill-opacity:1;fill-rule:nonzero;stroke:none"
         id="path114" /><path
         d="m 1325.91,3971.87 c 5.27,-0.62 10.74,-1.23 15.79,0.43 2.54,0.84 4.73,2.14 6.64,3.8 l 2.15,2.2 -85.83,0.82 c 20.42,-2.41 40.83,-4.82 61.25,-7.25"
         style="fill:#b99a6f;fill-opacity:1;fill-rule:nonzero;stroke:none"
         id="path116" /><path
         d="m 1468.66,4265.67 c 3.91,-18.62 1.83,-38.79 -0.61,-58.05 20.2,11.03 34.04,33.25 42.31,56.19 -13.15,-1.4 -27.36,-0.49 -41.7,1.86"
         style="fill:#1a3151;fill-opacity:1;fill-rule:nonzero;stroke:none"
         id="path118" /><path
         d="m 1468.66,4265.67 -1.85,0.34 c 0.26,-4.37 0.09,-8.68 -0.83,-12.86 -3.65,-16.52 -11.36,-33.25 -7.35,-49.68 3.28,1.11 6.42,2.51 9.42,4.15 2.44,19.26 4.52,39.43 0.61,58.05"
         style="fill:#1a3151;fill-opacity:1;fill-rule:nonzero;stroke:none"
         id="path120" /><path
         d="m 1168.5,4255.62 c 0.6,14.62 1.32,29.68 7.5,42.93 10.84,23.28 36.09,36.12 60.6,43.74 62.56,19.44 134.1,14.65 189.18,-20.81 14.66,-9.43 28.35,-21.29 36.29,-36.81 1.24,-2.41 2.28,-4.89 3.22,-7.39 -3.72,18.05 -12.1,36.02 -9.23,49 4.12,18.71 29.99,22.76 44.42,12.44 10.33,-7.39 16.01,-20.55 17.08,-33.63 1.06,-13.1 -2.01,-26.19 -6.22,-38.57 -0.31,-0.9 -0.65,-1.81 -0.98,-2.71 8.94,0.94 17.4,2.91 25.04,6.26 39.31,17.24 71.28,85.96 69.95,128.26 -0.62,19.8 -8.17,37.5 -25.86,49.45 -15.26,10.31 -32.85,18.85 -42.11,35.23 -7.2,12.71 -8.25,28.45 -15.38,41.2 -12.91,23.09 -40.93,29.89 -65.3,37.71 -60.97,19.58 -93.79,42.19 -158.37,17.12 -45.91,-17.82 -105.23,-20.2 -147.84,-46.2 -17.79,-10.86 -32.94,-28.3 -45.36,-47.72 -43.05,-67.31 -53.38,-161.95 -25.34,-232.14 6.27,-15.71 14.24,-30.17 22.77,-44.01 17.04,-27.66 35.3,-61.69 65.48,-75.24 0.5,3.37 1.52,6.34 2.8,9.13 -10.12,35.43 -3.86,75.43 -2.34,112.76"
         style="fill:#1a3151;fill-opacity:1;fill-rule:nonzero;stroke:none"
         id="path122" /><path
         d="m 1183.67,4195.15 c -1.86,36.9 -13.18,95.26 23.68,113.57 46.61,23.15 134.05,2.27 178.94,-17.33 21.56,-9.42 51.18,-20.32 80.52,-25.38 -0.22,3.73 -0.75,7.5 -1.52,11.27 -0.94,2.5 -1.98,4.98 -3.22,7.39 -7.94,15.52 -21.63,27.38 -36.29,36.81 -55.08,35.46 -126.62,40.25 -189.18,20.81 -24.51,-7.62 -49.76,-20.46 -60.6,-43.74 -6.18,-13.25 -6.9,-28.31 -7.5,-42.93 -1.52,-37.33 -7.78,-77.33 2.34,-112.76 3.69,7.99 9.6,14.41 11.85,23.91 2.19,9.22 1.45,18.88 0.98,28.38"
         style="fill:#1a3151;fill-opacity:1;fill-rule:nonzero;stroke:none"
         id="path124" /><path
         d="m 1517.56,4305.09 c -1.07,13.08 -6.75,26.24 -17.08,33.63 -14.43,10.32 -40.3,6.27 -44.42,-12.44 -2.87,-12.98 5.51,-30.95 9.23,-49 1.41,-3.79 2.54,-7.66 3.37,-11.61 14.34,-2.35 28.55,-3.26 41.7,-1.86 0.33,0.9 0.67,1.81 0.98,2.71 4.21,12.38 7.28,25.47 6.22,38.57"
         style="fill:#1a3151;fill-opacity:1;fill-rule:nonzero;stroke:none"
         id="path126" /><path
         d="m 1465.29,4277.28 c 0.77,-3.77 1.3,-7.54 1.52,-11.27 l 1.85,-0.34 c -0.83,3.95 -1.96,7.82 -3.37,11.61"
         style="fill:#1a3151;fill-opacity:1;fill-rule:nonzero;stroke:none"
         id="path128" /><path
         d="m 9303.93,4130.38 c -27.09,-43.38 -13.79,-98.86 -1.84,-146.42 4.89,-19.42 13.27,-46.95 -5.51,-61.45 -21.02,-16.23 -55.64,-0.73 -66.54,19.79 -7.7,14.5 -8.49,31.12 -8.68,47.13 -0.83,71.76 -1.89,172.25 25.49,238.77 21.96,53.35 119.87,129.5 178.14,72.84 10.58,-10.3 14.89,-24.71 18.1,-38.57 1.92,-8.27 3.59,-16.83 1.9,-25.05 -6.74,-32.76 -39.92,-31.28 -65.41,-42 -31.44,-13.22 -58.35,-37.34 -75.65,-65.04"
         style="fill:#1a3151;fill-opacity:1;fill-rule:nonzero;stroke:none"
         id="path130" /><path
         d="m 9366,3924.32 c -44.4,20.46 -72.87,64.97 -81.28,110.42 -8.42,45.44 0.76,91.78 15.34,135.19 48.52,144.47 243.77,91.79 285.77,-36.28 36.59,-111.6 -90.75,-268.83 -219.83,-209.33"
         style="fill:#eac5b0;fill-opacity:1;fill-rule:nonzero;stroke:none"
         id="path132" /><path
         d="m 9555.83,4067.69 c -3.96,-18.1 -0.89,-39.58 -4.12,-58.44 -5.95,-34.72 -27.02,-75.55 -24.43,-109.8 35.25,-6.02 83.01,2.15 115.36,17.44 33.03,15.63 39.54,52.29 56.25,85.38 15.47,30.59 32.43,60.89 40.88,94.13 46.26,181.91 -101.27,335.89 -283.83,304.81 -69.07,-11.76 -119.51,-81.08 -91.85,-145.81 29.76,-69.62 132.81,-76 176.32,-134.4 9.66,-12.96 14.16,-32.19 15.42,-53.31"
         style="fill:#1a3151;fill-opacity:1;fill-rule:nonzero;stroke:none"
         id="path134" /><path
         d="m 9366.21,3936.66 c -1.42,-13.66 -2.83,-27.32 -4.25,-40.99 -0.65,-6.26 -5.98,-22.99 -2.9,-28.49 1.6,-2.87 4.98,-3.69 8.01,-4.26 8.67,-1.64 86.43,-15.9 87.27,-9.97 2.25,15.9 4.14,31.58 4.41,47.42 0.21,12.79 5.4,35.22 2.08,46.12 -15.66,-5.98 -30.59,-7.88 -46.96,-7.8 -15.79,0.08 -31.57,0.46 -47.33,1.15 -0.11,-1.06 -0.22,-2.12 -0.33,-3.18"
         style="fill:#eac5b0;fill-opacity:1;fill-rule:nonzero;stroke:none"
         id="path136" /><path
         d="m 8790.86,2787.67 -54.05,10.48 -54.13,-76.96 30.89,-54.61 63.32,-10.5 23.33,77.87 -9.36,53.72"
         style="fill:#eac5b0;fill-opacity:1;fill-rule:nonzero;stroke:none"
         id="path138" /><path
         d="m 9300.15,3754.56 -247.52,1.86 -78.76,-551.74 -237.49,-393.17 65.92,-76.04 314.1,315.82 183.75,703.27"
         style="fill:#ebb044;fill-opacity:1;fill-rule:nonzero;stroke:none"
         id="path140" /><path
         d="m 9218.04,1195.26 c 9.03,15.26 21.35,25.12 37.56,25.96 15.58,0.81 31.35,-6.36 40.55,-18.41 6.26,-8.22 9.43,-18.18 12.48,-27.93 15.83,-50.46 42.69,-172.47 -23.4,-204.548 -27.77,-13.461 -56.68,1.91 -70.3,26.098 -20.53,36.44 -27.09,147.82 3.11,198.83"
         style="fill:#1a3151;fill-opacity:1;fill-rule:nonzero;stroke:none"
         id="path142" /><path
         d="m 9337.81,1972.64 -8.7,-320.35 c 2.16,-142.39 -22.79,-285.18 -20.63,-427.57 0.5,-32.74 8.69,-67.39 -0.25,-99.71 -8.74,-31.61 -35.21,-36.86 -62.05,-20.4 -35.95,22.04 -29.32,72.23 -34.8,108.99 -15.04,101.02 -32.96,201.61 -48.75,302.51 -7.73,49.48 10.85,118.39 7.81,168.38 l -48.81,269.28 216.18,18.87"
         style="fill:#eac5b0;fill-opacity:1;fill-rule:nonzero;stroke:none"
         id="path144" /><path
         d="m 9444.71,1182.72 c 11.55,13.62 25.41,21.38 41.54,19.62 15.5,-1.68 29.81,-11.25 36.78,-24.61 4.75,-9.1 6.14,-19.42 7.46,-29.53 6.84,-52.28 12.15,-176.899 -58.57,-198.02 -29.72,-8.871 -55.55,10.89 -64.78,36.922 -13.91,39.208 -1.05,150.108 37.57,195.618"
         style="fill:#1a3151;fill-opacity:1;fill-rule:nonzero;stroke:none"
         id="path146" /><path
         d="m 9383,1973.33 18.41,-319.95 c 2.16,-142.38 31.43,-284.36 33.59,-426.75 0.49,-32.73 -6.65,-67.62 3.27,-99.65 9.69,-31.34 36.31,-35.77 62.64,-18.51 35.26,23.12 27.12,73.08 31.48,110 11.97,101.42 26.84,202.51 39.55,303.84 6.24,49.69 -14.43,118.01 -12.91,168.08 l 40.63,270.63 -216.66,12.31"
         style="fill:#eac5b0;fill-opacity:1;fill-rule:nonzero;stroke:none"
         id="path148" /><path
         d="m 9545.76,3878.3 -288.69,-16.55 -156.85,-118.36 c 0,0 16.24,-493.35 10.25,-675.98 -5.99,-182.62 -17.98,-331.02 -33.85,-598.22 -17.47,-294 57.51,-647.61 57.51,-647.61 l 610.35,9.25 c 0,0 124.26,669.14 60.34,842.6 -63.92,173.44 -25.89,346.11 -28.05,488.05 -2.15,141.94 -61.83,617.74 -61.83,617.74 l -169.18,99.08"
         style="fill:#b5d6ca;fill-opacity:1;fill-rule:nonzero;stroke:none"
         id="path150" /><path
         d="m 9682.39,3840.69 147.94,-122.49 c 0,0 -62.66,-546.12 -65.33,-636.63 -2.67,-90.51 47.39,-359.19 47.39,-359.19 l -214.91,19.57 c 0,0 -99.28,144.64 -122.62,336.09 -23.34,191.45 105.32,805.35 105.32,805.35 l 102.21,-42.7"
         style="fill:#ebb044;fill-opacity:1;fill-rule:nonzero;stroke:none"
         id="path152" /><path
         d="m 9154.76,3832.7 -110.6,-76.77 c 0,0 50.64,-594.05 55.78,-684.44 5.14,-90.4 -69.63,-379.23 -69.63,-379.23 l 235.87,44.67 c 0,0 88.38,147.48 104.55,339.53 16.16,192.05 -121.86,801.9 -121.86,801.9 l -94.11,-45.66"
         style="fill:#ebb044;fill-opacity:1;fill-rule:nonzero;stroke:none"
         id="path154" /><path
         d="m 10121.5,4301.62 64.2,-21.47 78.8,89.64 -28.5,74.04 -75.4,22.87 -41.5,-95.41 2.4,-69.67"
         style="fill:#eac5b0;fill-opacity:1;fill-rule:nonzero;stroke:none"
         id="path156" /><path
         d="m 9583.23,3589.52 431.57,138.99 216.8,576.44 -128.5,31.96 -254.93,-437.99 -263.33,-55.77 -1.61,-253.63"
         style="fill:#ebb044;fill-opacity:1;fill-rule:nonzero;stroke:none"
         id="path158" /><path
         d="m 3732.31,3361.54 -26.65,38.46 2072.9,1436.65 26.65,-38.46 -2072.9,-1436.65"
         style="fill:#9ea6ad;fill-opacity:1;fill-rule:nonzero;stroke:none"
         id="path160" /><path
         d="m 5779.56,4797.55 -2152.14,1334.83 24.66,39.75 2152.14,-1334.83 -24.66,-39.75"
         style="fill:#9ea6ad;fill-opacity:1;fill-rule:nonzero;stroke:none"
         id="path162" /><path
         d="m 5789.68,4794.14 -4001.75,379.74 4.42,46.57 4001.75,-379.74 -4.42,-46.57"
         style="fill:#9ea6ad;fill-opacity:1;fill-rule:nonzero;stroke:none"
         id="path164" /><path
         d="m 5748.17,4800.37 -32.01,34.11 1935.62,1816.45 32.01,-34.11 -1935.62,-1816.45"
         style="fill:#9ea6ad;fill-opacity:1;fill-rule:nonzero;stroke:none"
         id="path166" /><path
         d="m 8280.19,3130.06 -2560.79,1667.76 25.53,39.2 2560.8,-1667.76 -25.54,-39.2"
         style="fill:#9ea6ad;fill-opacity:1;fill-rule:nonzero;stroke:none"
         id="path168" /><path
         d="m 5792.65,4850.09 -1.53,46.76 4194.24,136.43 1.53,-46.76 -4194.24,-136.43"
         style="fill:#9ea6ad;fill-opacity:1;fill-rule:nonzero;stroke:none"
         id="path170" /><path
         d="m 4356.65,5007.29 c 0,698.82 566.5,1265.33 1265.32,1265.33 698.82,0 1265.32,-566.51 1265.32,-1265.33 0,-698.81 -566.5,-1265.32 -1265.32,-1265.32 -698.82,0 -1265.32,566.51 -1265.32,1265.32"
         style="fill:#3ababa;fill-opacity:1;fill-rule:nonzero;stroke:none"
         id="path172" /><path
         d="m 3001.63,6294.17 c 0,327.4 265.42,592.82 592.83,592.82 327.4,0 592.82,-265.42 592.82,-592.82 0,-327.41 -265.42,-592.83 -592.82,-592.83 -327.41,0 -592.83,265.42 -592.83,592.83"
         style="fill:#c8d6a1;fill-opacity:1;fill-rule:nonzero;stroke:none"
         id="path174" /><path
         d="m 1513.79,5242.44 c 0,372.03 301.59,673.62 673.62,673.62 372.04,0 708.43,-301.59 708.43,-673.62 0,-372.03 -336.39,-673.62 -708.43,-673.62 -372.03,0 -673.62,301.59 -673.62,673.62"
         style="fill:#145566;fill-opacity:1;fill-rule:nonzero;stroke:none"
         id="path176" /><path
         d="m 3277.11,3380.77 c 0,293.59 238,531.58 531.59,531.58 293.58,0 531.58,-237.99 531.58,-531.58 0,-293.58 -238,-531.58 -531.58,-531.58 -293.59,0 -531.59,238 -531.59,531.58"
         style="fill:#3ababa;fill-opacity:1;fill-rule:nonzero;stroke:none"
         id="path178" /><path
         d="m 7064.72,6588.59 c 0,324.61 263.15,587.77 587.77,587.77 324.61,0 587.76,-263.16 587.76,-587.77 0,-324.61 -263.15,-587.76 -587.76,-587.76 -324.62,0 -587.77,263.15 -587.77,587.76"
         style="fill:#145566;fill-opacity:1;fill-rule:nonzero;stroke:none"
         id="path180" /><path
         d="m 7652.49,3217.57 c 0,353.73 286.75,640.48 640.47,640.48 353.72,0 640.47,-286.75 640.47,-640.48 0,-353.72 -286.75,-640.47 -640.47,-640.47 -353.72,0 -640.47,286.75 -640.47,640.47"
         style="fill:#145566;fill-opacity:1;fill-rule:nonzero;stroke:none"
         id="path182" /><path
         d="m 9167.5,5009.9 c 0,401.11 325.15,726.25 726.25,726.25 401.05,0 726.25,-325.14 726.25,-726.25 0,-401.09 -325.2,-726.25 -726.25,-726.25 -401.1,0 -726.25,325.16 -726.25,726.25"
         style="fill:#c8d6a1;fill-opacity:1;fill-rule:nonzero;stroke:none"
         id="path184" /><path
         d="m 9012.67,6404.8 c 0,198.1 160.59,358.7 358.69,358.7 198.1,0 358.7,-160.6 358.7,-358.7 0,-198.1 -160.6,-358.7 -358.7,-358.7 -198.1,0 -358.69,160.6 -358.69,358.7"
         style="fill:#ebb044;fill-opacity:1;fill-rule:nonzero;stroke:none"
         id="path186" /><path
         d="m 841.223,6627.25 c 0,198.09 160.587,358.69 358.687,358.69 198.11,0 358.7,-160.6 358.7,-358.69 0,-198.11 -160.59,-358.7 -358.7,-358.7 -198.1,0 -358.687,160.59 -358.687,358.7"
         style="fill:#3ababa;fill-opacity:1;fill-rule:nonzero;stroke:none"
         id="path188" /><path
         d="m 380,5307.52 c 0,216.94 175.863,392.8 392.805,392.8 216.937,0 392.805,-175.86 392.805,-392.8 0,-216.93 -175.868,-392.8 -392.805,-392.8 -216.942,0 -392.805,175.87 -392.805,392.8"
         style="fill:#c8d6a1;fill-opacity:1;fill-rule:nonzero;stroke:none"
         id="path190" /><path
         d="m 1431.44,3474.23 c 0,242.25 196.39,438.64 438.65,438.64 242.25,0 438.64,-196.39 438.64,-438.64 0,-242.26 -196.39,-438.64 -438.64,-438.64 -242.26,0 -438.65,196.38 -438.65,438.64"
         style="fill:#ebb044;fill-opacity:1;fill-rule:nonzero;stroke:none"
         id="path192" /><path
         d="m 1334.7,3359.6 69.17,4.5 39.58,46.57 14.13,-3.38 -3.45,-17.55 43.92,29.24 42.6,-4.46 28.13,-49.56 -8.55,-58.26 -52.18,-22.72 -67.24,7.67 -94.41,-10.27 -11.7,78.22"
         style="fill:#b99a6f;fill-opacity:1;fill-rule:nonzero;stroke:none"
         id="path194" /><path
         d="m 1371.02,3393.01 -378.114,-9.99 76.884,580.63 -258.157,-254.34 -38.828,-535.81 139.039,-75.74 516.056,164.56 -56.88,130.69"
         style="fill:#9ea6ad;fill-opacity:1;fill-rule:nonzero;stroke:none"
         id="path196" /><path
         d="m 6743.65,3783.66 101.88,99.2 275.44,-18.4 c 0,0 27.7,-195.88 152.74,-633.51 125.04,-437.64 -58.06,-994.72 -58.06,-994.72 0,0 -709.03,168.51 -850.61,196.3 l 177.59,799.95 201.02,551.18"
         style="fill:#1a3151;fill-opacity:1;fill-rule:nonzero;stroke:none"
         id="path198" /><path
         d="m 6970.37,2730.07 v -156.03 l -208.04,-676.1 52.01,-702.11 -130.02,-26.01 -208.03,858.14 7.96,252.47 96.06,514.92 390.06,-65.28"
         style="fill:#1a3151;fill-opacity:1;fill-rule:nonzero;stroke:none"
         id="path200" /><path
         d="m 6805.34,2545.32 209.04,-1430.21 h 95.01 l 60.01,780.11 130.02,780.12 -494.08,-130.02"
         style="fill:#1a3151;fill-opacity:1;fill-rule:nonzero;stroke:none"
         id="path202" /><path
         d="m 6701.4,1183.15 -99.26,-105.03 28.68,-53.26 204.79,98.3 -37.72,77.83 -96.49,-17.84"
         style="fill:#000000;fill-opacity:1;fill-rule:nonzero;stroke:none"
         id="path204" /><path
         d="m 7016.14,1135.19 -122.35,-76.92 14.45,-58.719 222.87,44.019 -17.08,84.78 -97.89,6.84"
         style="fill:#000000;fill-opacity:1;fill-rule:nonzero;stroke:none"
         id="path206" /><path
         d="m 6971.61,4286.54 c 58.05,-61.4 162.89,-63.43 212.56,-132.05 32.29,-44.61 31.46,-108.64 7.27,-159.54 -11.28,-23.73 -27.74,-45.78 -50.13,-59.17 -14.54,-8.69 -31.03,-13.43 -47.6,-15.88 -22.15,-3.28 -44.65,-2.26 -66.29,2.5 -3.68,-19.67 -5.57,-39.66 -5.64,-59.67 -38.74,15.22 -90.07,2.52 -128.8,17.74 8.72,22.28 30.03,72.48 38.75,94.76 -8.19,8.36 -15.67,17.45 -22.1,27.33 -38.88,59.74 -40.37,142.95 -3.69,205.93 17.19,29.51 41.48,54.06 65.67,78.05"
         style="fill:#b99a6f;fill-opacity:1;fill-rule:nonzero;stroke:none"
         id="path208" /><path
         d="m 6970.18,4253.42 213.28,-152.84 -96.87,-181.08 93.71,-6.5 191.62,266.05 -266.2,253.83 -180.56,38.4 -58.15,-73.67 40.51,-166.77 62.66,22.58"
         style="fill:#1a3151;fill-opacity:1;fill-rule:nonzero;stroke:none"
         id="path210" /><path
         d="m 6834.45,3872.07 372.15,-1.1 c 0,0 54.24,-127.61 179.28,-565.25 125.04,-437.63 -58.06,-994.71 -58.06,-994.71 0,0 -634.25,313.39 -775.84,341.18 l 102.81,655.08 179.66,564.8"
         style="fill:#ffffff;fill-opacity:1;fill-rule:nonzero;stroke:none"
         id="path212" /><path
         d="m 7390.55,3296.38 c -125.03,437.63 -183.95,574.59 -183.95,574.59 l -360.57,13.46 -0.5,-1.57 c 6.86,-17.88 14.02,-35.66 20.23,-53.79 24.51,-71.55 42.63,-145.19 53.76,-220.01 19.56,-131.5 21.61,-266.7 17.41,-399.39 -4.03,-127.33 -17.16,-254.42 -39.78,-379.79 -29.91,-165.74 -77.59,-327.23 -139.03,-483.55 287.86,-58.49 626.64,-127.65 626.64,-127.65 0,0 130.83,640.06 5.79,1077.7"
         style="fill:#1a3151;fill-opacity:1;fill-rule:nonzero;stroke:none"
         id="path214" /><path
         d="m 6699.88,3194.69 c -14.01,-58.94 -28.99,-125.32 -17.03,-182.62 0,0 38.6,-80.67 41.92,-77.35 0.14,2.57 44.01,38.8 56.29,65.8 20.95,46.06 25.45,103.56 25.89,155.52 1.55,184.39 -9.35,370.27 21.74,552.03 36.29,11.02 67.4,37.71 45.09,75.59 -70.61,-26.78 -78.09,-185.71 -93.51,-250.61 -26.8,-112.8 -53.6,-225.58 -80.39,-338.36"
         style="fill:#ffd559;fill-opacity:1;fill-rule:nonzero;stroke:none"
         id="path216" /><path
         d="m 4347.64,3556.76 28.01,52.28 -63.71,81.62 -67,-13.6 -30.92,-61.85 43.48,-29.33 -5.38,-14.43 9.23,-19.64 86.29,4.95"
         style="fill:#eac5b0;fill-opacity:1;fill-rule:nonzero;stroke:none"
         id="path218" /><path
         d="m 6255.89,4373.38 c -124.61,-124.62 -279.47,-207.97 -448,-243.33 42.88,41.5 92.44,94.5 142.13,158.49 78.17,100.65 140.5,207.84 185.28,318.6 11.37,28.08 21.53,56.43 30.63,84.98 h 295.75 c -44.33,-118.28 -113.8,-226.76 -205.79,-318.74 z m -1267.84,0 c -91.99,91.98 -161.46,200.46 -205.79,318.74 h 309.02 c 9.09,-28.55 19.26,-56.9 30.62,-84.98 44.78,-110.76 107.12,-217.95 185.29,-318.6 51.06,-65.75 101.95,-119.86 145.62,-161.84 -175.02,33.23 -336.02,117.94 -464.76,246.68 z m -224.69,893.19 h 297.78 c -15.89,-74.36 -23.98,-150.73 -23.98,-228.54 0,-82.7 9.04,-164.8 26.99,-245.6 h -312.87 c -17.01,69.48 -25.81,141.5 -25.81,214.86 0,89.14 12.94,176.26 37.89,259.28 z m 224.69,374.64 c 123.48,123.49 276.66,206.46 443.41,242.35 -38.18,-33.85 -80.44,-75.44 -122.77,-124.94 -78.67,-91.98 -141.4,-192.41 -186.45,-298.5 -13,-30.61 -24.45,-61.71 -34.49,-93.23 h -287.48 c 44.25,101.05 107.44,193.98 187.78,274.32 z m 1267.84,0 c 80.35,-80.34 143.53,-173.27 187.78,-274.32 h -274.22 c -10.03,31.52 -21.48,62.62 -34.48,93.23 -45.05,106.09 -107.78,206.52 -186.45,298.5 -40.68,47.56 -81.28,87.81 -118.27,120.92 159.85,-37.85 306.56,-119.25 425.64,-238.33 z m -59.83,-374.64 h 284.52 c 24.95,-83.02 37.89,-170.14 37.89,-259.28 0,-73.36 -8.8,-145.38 -25.81,-214.86 h -299.6 c 17.95,80.8 26.99,162.9 26.99,245.6 0,77.81 -8.09,154.18 -23.99,228.54 z m -523.93,-474.14 v 474.14 h 421.11 c 17.57,-74.08 26.49,-150.5 26.49,-228.54 0,-82.76 -9.97,-164.91 -29.7,-245.6 z m 0,-649.81 v 549.5 h 388.04 c -5.36,-15.25 -11.05,-30.43 -17.12,-45.54 -40.98,-101.87 -98.26,-200.76 -170.25,-293.92 -75.88,-98.19 -152.49,-169.43 -200.67,-210.04 z m -100.32,549.5 v -538.25 c -47.71,41.39 -116.54,107.55 -185.39,196.2 -72.49,93.35 -130.2,192.49 -171.51,294.67 -6.36,15.71 -12.32,31.51 -17.9,47.38 z m 0,1176.32 v -501.55 h -378.22 c 6.21,17.48 12.88,34.81 20.11,51.96 40.65,96.34 97.47,187.78 168.88,271.81 70.26,82.68 141.18,142 189.23,177.78 z m 300.47,-175.02 c 72,-84.18 129.31,-175.87 170.35,-272.51 7.57,-17.82 14.52,-35.84 20.98,-54.02 h -391.48 v 511.36 c 46.98,-33.73 123.51,-95.23 200.15,-184.83 z m -734.8,-655.39 c 0,78.04 8.92,154.46 26.49,228.54 h 407.84 v -474.14 h -404.62 c -19.73,80.69 -29.71,162.84 -29.71,245.6 z m 1402.95,357.28 c -50.21,118.71 -122.08,225.31 -213.6,316.84 -91.53,91.53 -198.13,163.4 -316.84,213.6 -122.92,51.99 -253.47,78.36 -388.02,78.36 -134.55,0 -265.1,-26.37 -388.02,-78.36 -118.71,-50.2 -225.3,-122.07 -316.84,-213.6 -91.52,-91.53 -163.39,-198.13 -213.6,-316.84 -51.99,-122.92 -78.35,-253.47 -78.35,-388.02 0,-134.55 26.36,-265.09 78.35,-388.02 50.21,-118.7 122.08,-225.31 213.6,-316.83 91.54,-91.53 198.13,-163.4 316.84,-213.6 122.92,-51.99 253.47,-78.36 388.02,-78.36 134.55,0 265.1,26.37 388.02,78.36 118.71,50.2 225.31,122.07 316.84,213.6 91.52,91.52 163.39,198.13 213.6,316.83 51.99,122.93 78.36,253.47 78.36,388.02 0,134.55 -26.37,265.1 -78.36,388.02"
         style="fill:#ffffff;fill-opacity:1;fill-rule:nonzero;stroke:none"
         id="path220" /><path
         d="m 10450.2,5089.13 c -60.3,100.97 -184.6,148.82 -297.8,118.43 l -0.6,-0.11 c -34.8,-12.64 -63.9,-37.2 -76.4,-75.94 -2.7,-8.51 -16.2,-4.87 -13.4,3.7 13.4,41.53 43.5,68.55 80,83.14 -39.9,125.5 -161.29,214.39 -294.67,204.5 -131.25,-9.73 -237.89,-109.35 -263.27,-237.16 11.03,-2.61 21.87,-6.24 32.36,-11.02 41.74,-19.01 74.14,-51.79 97.2,-91.04 4.56,-7.76 -7.48,-14.76 -12.03,-7.03 -7.59,12.92 -16.41,25.12 -26.42,36.27 -37.15,41.39 -90.24,66.05 -146.21,63.55 -56.55,-2.52 -117.5,-32.73 -155.57,-74.05 -43.62,-47.35 -67.15,-111.38 -61.33,-175.91 5.71,-63.32 38.66,-122.36 89.74,-160.42 47.37,-35.31 102.47,-51.35 161.02,-53.58 38.4,-1.46 76.84,-2.01 115.25,-2.53 109.82,-1.49 219.65,-1.92 329.43,-2.21 48.3,-0.12 96.5,-0.2 144.8,-0.23 39.6,-0.03 81.3,-3.19 120.4,4.34 127.7,24.6 224.3,141.64 211.6,273.57 -3.6,36.59 -15.3,72.18 -34.1,103.73"
         style="fill:#ffffff;fill-opacity:1;fill-rule:nonzero;stroke:none"
         id="path222" /><path
         d="m 2433.58,5069.61 c -42.66,17.11 -89.63,6.81 -121.32,-22.52 l -218.55,124.01 c 15.01,42.69 11.42,87.84 -6.8,126.16 l 206.4,136.45 c 12.69,-12.65 28.07,-22.99 45.72,-30.07 70.35,-28.21 150.53,6.08 178.73,76.42 28.21,70.35 -6.07,150.53 -76.42,178.74 -70.34,28.2 -150.52,-6.08 -178.73,-76.43 -12.08,-30.1 -12.69,-62.01 -3.94,-90.88 l -212.44,-140.44 c -13.66,11.95 -29.53,21.83 -47.3,28.96 -84.91,34.04 -181.68,-7.32 -215.72,-92.23 -34.05,-84.9 7.33,-181.68 92.23,-215.72 64.8,-25.99 136.51,-8.04 181.97,39.67 l 220.51,-125.12 c -11.48,-53.81 17.08,-109.83 69.85,-130.99 59,-23.67 126.24,5.09 149.9,64.09 23.66,58.99 -5.09,126.24 -64.09,149.9"
         style="fill:#ffffff;fill-opacity:1;fill-rule:nonzero;stroke:none"
         id="path224" /><path
         d="m 8409.38,2951.14 c 0,-70.55 -57.19,-127.73 -127.74,-127.73 -70.55,0 -127.74,57.18 -127.74,127.73 0,70.55 57.19,127.75 127.74,127.75 70.55,0 127.74,-57.2 127.74,-127.75"
         style="fill:#ffffff;fill-opacity:1;fill-rule:nonzero;stroke:none"
         id="path226" /><path
         d="m 8296.04,2833.79 c -11.08,0 -22.21,2.02 -32.95,6.27 -7.55,2.99 -14.47,6.9 -20.72,11.59 l 1.43,-0.08 c 2.32,-0.12 4.64,-0.17 6.97,-0.17 10.69,0 21.5,1.25 32.08,3.78 25.72,6.13 49.71,19.75 68.5,40.65 17.89,19.89 28.08,46.55 30.17,73.15 1.38,17.56 -0.54,35.07 -5.53,51.27 26.37,-28.35 34.95,-73.21 18.44,-114.98 -17.42,-44.02 -57.53,-71.48 -98.39,-71.48"
         style="fill:#f0f0f0;fill-opacity:1;fill-rule:nonzero;stroke:none"
         id="path228" /><path
         d="m 8520.17,3028.33 c -101.86,91.03 -212.2,118.99 -327.96,83.15 -88.57,-27.43 -146.5,-81.68 -147.08,-82.22 l -65.72,66.58 c 3,2.85 74.75,70.04 184.32,103.96 103.28,31.99 260,40.07 420.14,-103.02 l -63.7,-68.45"
         style="fill:#ffffff;fill-opacity:1;fill-rule:nonzero;stroke:none"
         id="path230" /><path
         d="m 8627.15,3129.36 c -81.91,73.56 -168.81,119.19 -258.28,135.64 -70.86,13.03 -144.19,8 -217.93,-14.95 -127.85,-39.8 -211.95,-118.96 -212.79,-119.76 l -65.89,66.42 c 4.06,3.88 101.17,95.28 250.06,141.62 88.79,27.64 177.6,33.59 263.98,17.71 107.08,-19.68 209.6,-72.97 304.72,-158.39 l -63.87,-68.29"
         style="fill:#ffffff;fill-opacity:1;fill-rule:nonzero;stroke:none"
         id="path232" /><path
         d="m 8733.53,3230.8 c -106.28,95.45 -219.24,154.92 -335.73,176.76 -92.65,17.38 -188.45,11.25 -284.74,-18.21 -167.61,-51.27 -280.22,-156.61 -281.34,-157.67 l -65.84,66.47 c 5.12,4.88 127.44,120 315.37,178.5 111.72,34.78 223.42,42.29 331.98,22.32 134.82,-24.78 264.07,-92.03 384.17,-199.88 l -63.87,-68.29"
         style="fill:#ffffff;fill-opacity:1;fill-rule:nonzero;stroke:none"
         id="path234" /><path
         d="m 6159.61,4072.19 -40.59,104.12 43.75,19.29 43.58,-65.15 16.46,18.72 23.88,-93.34 -42.77,-26.18 -44.31,42.54"
         style="fill:#b99a6f;fill-opacity:1;fill-rule:nonzero;stroke:none"
         id="path236" /><path
         d="m 7085.26,3734.29 -459.13,-43.05 -376.93,398.91 -82.21,-56.3 303.01,-527.41 615.26,-102.35 v 330.2"
         style="fill:#1a3151;fill-opacity:1;fill-rule:nonzero;stroke:none"
         id="path238" /><path
         d="m 4064.48,3592.49 c 9.37,-17.36 18.76,-34.72 28.1,-52.1 0.5,-0.94 1.02,-1.86 1.51,-2.8 1.07,-2.03 2,-4.11 3.02,-6.16 l 0.35,-0.71 0.14,-0.44 c 1.47,-4.6 2.39,-9.19 3.37,-13.9 l 0.22,-1.61 c 0.09,-1.66 0.15,-3.31 0.15,-4.98 0,-2.92 -0.22,-5.8 -0.51,-8.69 l -0.67,-4.21 c -0.32,-1.38 -0.68,-2.77 -1.08,-4.14 -0.58,-2.06 -1.25,-4.09 -1.99,-6.1 l -0.96,-2.42 -0.31,-0.64 c -1.85,-3.49 -3.77,-6.9 -6.03,-10.16 l -1.34,-1.84 -2.86,-3.27 c -2.55,-2.69 -5.3,-5.07 -8.1,-7.47 l -0.93,-0.82 -0.98,-0.56 c -1.98,-1.15 -3.9,-2.38 -5.9,-3.49 -43.2,-23.3 -86.39,-46.6 -129.59,-69.9 -3.15,-1.7 -6.3,-3.39 -9.45,-5.09 -5.72,10.59 -11.43,21.19 -17.14,31.78 -11.85,21.98 -24.73,42.11 -46.64,55.69 -33.22,20.58 -75.32,21.27 -109.72,3.22 -7.7,-4.04 -15.3,-8.26 -22.96,-12.38 -9.23,-4.98 -18.47,-9.96 -27.71,-14.95 -0.84,1.63 -1.7,3.25 -2.52,4.88 -0.69,1.36 -1.28,2.76 -1.95,4.12 l -0.55,1.07 -0.29,1.13 c -0.97,3.56 -2.01,7.06 -2.67,10.7 l -0.61,4.34 c -0.05,1.1 -0.09,2.2 -0.1,3.32 -0.02,1.78 0.01,3.58 0.1,5.38 l 0.56,6.12 c 0.58,2.92 1.3,5.83 2.19,8.66 0.54,1.71 1.17,3.37 1.76,5.05 l 0.9,2.01 c 1.49,2.87 3.04,5.72 4.82,8.43 0.85,1.29 1.74,2.56 2.66,3.8 l 3.51,3.89 c 2.55,2.6 5.26,5.02 8.11,7.28 l 1.14,0.78 c 1.98,1.15 3.9,2.38 5.9,3.49 l 1.4,0.76 c 3.47,1.89 6.95,3.74 10.42,5.62 14.66,7.91 29.31,15.81 43.97,23.72 40.1,21.62 80.2,43.25 120.3,64.88 14.85,8.01 29.69,16.01 44.54,24.02 3.61,1.95 7.23,3.92 10.85,5.85 l 1.61,0.87 c 2.55,1.34 5.14,2.58 7.79,3.7 l 0.62,0.19 c 2.83,0.82 5.65,1.64 8.54,2.24 1.43,0.3 2.88,0.48 4.31,0.78 l 1.18,0.26 h 1.08 c 3.61,0.06 7.16,0.14 10.77,-0.15 l 4.2,-0.46 2.25,-0.46 c 4.52,-1.06 8.94,-2.48 13.23,-4.24 l 0.17,-0.07 0.85,-0.52 c 1.85,-1.1 3.78,-2.05 5.61,-3.18 1.36,-0.85 8.16,-6.12 6.09,-4.19 2.53,-2.26 4.96,-4.59 7.22,-7.1 1.03,-1.13 2,-2.32 2.96,-3.51 l 2.51,-3.7 c 8.19,-13.44 15.12,-27.78 22.58,-41.62 z m -153.86,-278.45 c 0.5,-0.93 1.02,-1.86 1.51,-2.8 1.06,-2.03 1.99,-4.11 3.01,-6.16 l 0.35,-0.71 0.14,-0.43 c 1.48,-4.6 2.39,-9.2 3.37,-13.91 l 0.22,-1.62 c 0.1,-1.65 0.16,-3.31 0.16,-4.96 -0.01,-2.92 -0.23,-5.8 -0.51,-8.69 l -0.68,-4.22 c -0.32,-1.39 -0.68,-2.77 -1.07,-4.14 -0.59,-2.05 -1.25,-4.09 -1.99,-6.1 l -0.96,-2.42 -0.32,-0.63 c -1.85,-3.5 -3.77,-6.92 -6.03,-10.17 l -1.34,-1.84 -2.86,-3.27 c -2.55,-2.68 -5.3,-5.08 -8.1,-7.48 l -0.92,-0.81 -0.99,-0.56 c -1.98,-1.16 -3.9,-2.38 -5.9,-3.49 -63.14,-34.06 -126.28,-68.12 -189.42,-102.17 -12.6,-6.8 -25.2,-13.59 -37.8,-20.39 -1.97,-1.06 -3.93,-2.15 -5.91,-3.18 -2.31,-1.21 -4.66,-2.34 -7.05,-3.37 1.11,0.6 -6.24,-1.92 -7.72,-2.27 -2.14,-0.5 -4.3,-0.8 -6.45,-1.25 l -0.87,-0.18 -0.31,-0.01 c -4.71,-0.28 -9.29,0.06 -13.99,0.27 l -1.78,0.2 c -1.55,0.31 -3.09,0.65 -4.61,1.05 -3.47,0.9 -6.8,2.08 -10.16,3.31 l -0.96,0.34 -1.06,0.66 c -1.22,0.73 -2.52,1.35 -3.76,2.07 -1.86,1.09 -3.67,2.24 -5.44,3.47 l -2.43,1.77 -0.26,0.24 c -2.99,2.71 -5.86,5.51 -8.48,8.59 l -1.45,1.8 -2.56,3.74 c -1.25,2.05 -2.37,4.16 -3.51,6.27 -9.24,17.04 -18.41,34.12 -27.61,51.19 -7.38,13.68 -15.16,27.21 -22.14,41.1 -0.68,1.36 -1.27,2.76 -1.95,4.12 l -0.55,1.08 -0.29,1.12 c -0.97,3.56 -2,7.06 -2.66,10.69 l -0.61,4.34 c -0.06,1.11 -0.1,2.22 -0.11,3.33 -0.02,1.79 0.01,3.58 0.1,5.38 l 0.57,6.11 c 0.57,2.93 1.3,5.83 2.19,8.67 0.53,1.71 1.16,3.37 1.76,5.05 l 0.89,2.02 c 1.49,2.87 3.04,5.7 4.83,8.42 0.84,1.29 1.74,2.56 2.66,3.8 l 3.51,3.88 c 2.54,2.61 5.25,5.03 8.1,7.29 l 1.14,0.78 c 1.98,1.15 3.9,2.38 5.91,3.49 l 1.4,0.76 c 3.46,1.89 6.94,3.74 10.42,5.62 14.65,7.91 29.31,15.81 43.96,23.71 27.75,14.97 55.5,29.94 83.25,44.9 l 0.5,-0.93 -0.18,-0.09 1.51,-2.81 0.21,0.05 c 2.37,-4.39 4.74,-8.79 7.11,-13.18 9.41,-17.45 17.96,-36.33 31.33,-51.19 26.08,-29 67.99,-41.74 105.85,-32.85 14.62,3.43 27.37,10.42 40.38,17.44 10.98,5.91 21.96,11.84 32.95,17.77 1.48,0.8 2.97,1.6 4.45,2.4 z m -123.58,117.44 z m 1.3,0.39 0.62,0.19 c 2.84,0.82 5.65,1.64 8.55,2.24 1.43,0.3 2.88,0.48 4.3,0.78 l 1.19,0.26 h 1.08 c 3.61,0.06 7.16,0.13 10.76,-0.14 l 4.2,-0.47 2.26,-0.46 c 4.52,-1.06 8.93,-2.48 13.22,-4.24 l 0.17,-0.07 0.86,-0.52 c 1.85,-1.1 3.77,-2.05 5.6,-3.18 1.37,-0.85 8.17,-6.11 6.09,-4.2 2.53,-2.25 4.96,-4.58 7.23,-7.1 1.02,-1.13 2,-2.3 2.95,-3.5 l 2.51,-3.71 c 8.2,-13.42 15.12,-27.77 22.58,-41.61 1.55,-2.87 3.1,-5.74 4.65,-8.61 -1.49,-0.8 -2.97,-1.6 -4.45,-2.4 l -2.46,-1.32 c -12.6,-6.8 -25.2,-13.6 -37.8,-20.39 -1.96,-1.07 -3.92,-2.15 -5.9,-3.19 -2.32,-1.21 -4.67,-2.33 -7.06,-3.36 1.11,0.6 -6.23,-1.92 -7.71,-2.27 -2.14,-0.5 -4.31,-0.8 -6.46,-1.25 l -0.86,-0.19 -0.32,-0.01 c -4.71,-0.27 -9.28,0.07 -13.98,0.28 l -1.79,0.19 c -1.54,0.32 -3.08,0.66 -4.61,1.06 -3.47,0.9 -6.79,2.08 -10.15,3.31 l -0.97,0.34 -1.05,0.65 c -1.23,0.74 -2.53,1.36 -3.76,2.08 -1.86,1.09 -3.68,2.25 -5.45,3.47 l -2.42,1.78 -0.27,0.22 c -2.99,2.72 -5.85,5.52 -8.48,8.6 l -1.45,1.79 -2.55,3.75 c -1.25,2.04 -2.38,4.16 -3.52,6.26 -7.93,14.64 -15.81,29.31 -23.71,43.97 12.7,6.84 25.41,13.7 38.11,20.56 3.62,1.94 7.23,3.9 10.85,5.84 l 1.62,0.87 c 2.55,1.34 5.13,2.58 7.78,3.7 z M 3969,3657.84 Z m 79.83,36.96 c -33.22,20.59 -75.33,21.27 -109.73,3.23 -7.69,-4.05 -15.3,-8.25 -22.95,-12.39 -39.81,-21.47 -79.61,-42.93 -119.42,-64.41 -29.78,-16.06 -59.63,-32.02 -89.35,-48.19 -26.74,-14.55 -47.56,-39.17 -55.25,-68.91 -7.49,-28.92 -2.47,-57.12 10.96,-83.18 -16.11,-8.69 -32.22,-17.38 -48.33,-26.07 -29.78,-16.06 -59.62,-32.02 -89.35,-48.19 -26.74,-14.55 -47.55,-39.17 -55.25,-68.91 -7.73,-29.87 -2.16,-58.95 12.28,-85.72 10.41,-19.32 20.83,-38.62 31.24,-57.93 9.42,-17.46 17.96,-36.34 31.33,-51.19 26.08,-28.99 68,-41.74 105.86,-32.85 14.61,3.43 27.36,10.42 40.37,17.44 71.34,38.47 142.67,76.94 214,115.42 1.98,1.06 3.95,2.13 5.92,3.19 34.74,19.34 58.04,56.5 57.59,96.69 -0.23,20.09 -6.51,37.44 -14.9,54.54 3.23,1.74 6.46,3.49 9.7,5.23 41.22,22.23 82.44,44.47 123.66,66.7 1.97,1.06 3.94,2.13 5.92,3.19 34.74,19.34 58.04,56.49 57.58,96.69 -0.29,25.36 -10.17,46.36 -21.83,67.99 -11.14,20.65 -22.28,41.3 -33.42,61.95 -11.85,21.97 -24.72,42.11 -46.63,55.68"
         style="fill:#ffffff;fill-opacity:1;fill-rule:nonzero;stroke:none"
         id="path240" /><path
         d="m 3770.44,6649.31 c -20.19,27.18 -47.84,46.98 -79.97,57.21 -21.73,6.94 -43.64,6.94 -64.82,6.94 h -61.64 c -28.64,0 -53.83,-5.43 -76.99,-16.59 -29.55,-14.23 -55.22,-39.9 -70.44,-70.4 -11.04,-22.1 -16.64,-46.37 -16.64,-72.11 v -325.78 h 48.98 v 327.39 c 0,12.79 1.41,21.53 5.59,34.63 3.24,10.16 11.17,24.76 18.06,33.23 9.19,11.28 17.76,18.62 30.59,26.17 11.68,6.88 23.28,10.93 38.79,13.53 0.65,0.1 2.75,0.4 8.02,0.74 2.2,0.14 4.57,0.21 7.47,0.21 h 86.28 c 13.05,0 21.88,-1.41 34.98,-5.58 10.17,-3.25 24.76,-11.19 33.22,-18.07 11.29,-9.19 18.63,-17.76 26.18,-30.59 6.88,-11.68 10.93,-23.28 13.52,-38.78 0.11,-0.66 0.41,-2.76 0.75,-8.02 0.14,-2.21 0.21,-4.55 0.21,-7.39 v -327.47 h 48.98 v 327.39 c 0,33.65 -10.76,65.92 -31.12,93.34"
         style="fill:#ffffff;fill-opacity:1;fill-rule:nonzero;stroke:none"
         id="path242" /><path
         d="m 3611.16,6123.41 v -85.53 c 0,-6.36 -7.41,-11.5 -16.54,-11.5 h -0.33 c -9.13,0 -16.54,5.14 -16.54,11.5 v 85.53 c -28.27,7.39 -49.14,33.1 -49.14,63.7 0,36.36 29.48,65.84 65.85,65.84 36.36,0 65.84,-29.48 65.84,-65.84 0,-30.6 -20.87,-56.31 -49.14,-63.7 z m -267.19,227.62 v -355.21 c 0,-48.05 38.95,-86.99 86.99,-86.99 h 326.99 c 48.04,0 86.99,38.94 86.99,86.99 v 355.21 h -500.97"
         style="fill:#ffffff;fill-opacity:1;fill-rule:nonzero;stroke:none"
         id="path244" /><path
         d="m 7809.69,6583.43 c -2.85,-86.82 -75.54,-154.89 -162.36,-152.04 -86.83,2.85 -154.9,75.54 -152.05,162.36 2.85,86.83 75.55,154.9 162.37,152.05 86.82,-2.85 154.89,-75.55 152.04,-162.37 z m -100.04,350.92 -7.6,35.24 c -12.19,1.56 -24.52,2.57 -36.96,2.98 -12.44,0.41 -24.8,0.21 -37.07,-0.55 l -9.9,-34.67 c -11.25,-39.44 -61.47,-51.14 -89.01,-20.75 l -24.31,26.85 c -22.73,-9.48 -44.56,-21.16 -65.23,-34.98 l 8.78,-35.02 c 9.97,-39.79 -27.67,-75.03 -66.71,-62.47 l -34.37,11.05 c -15.15,-19.73 -28.25,-40.74 -39.19,-62.79 l 25.19,-26.03 c 28.53,-29.47 13.55,-78.81 -26.54,-87.46 l -35.25,-7.6 c -1.56,-12.18 -2.56,-24.52 -2.97,-36.95 -0.41,-12.44 -0.22,-24.8 0.55,-37.07 l 34.67,-9.9 c 39.44,-11.26 51.14,-61.48 20.74,-89.02 l -26.84,-24.3 c 9.47,-22.74 21.17,-44.56 34.99,-65.24 l 35.01,8.78 c 39.79,9.97 75.03,-27.66 62.47,-66.71 l -11.05,-34.36 c 19.72,-15.15 40.74,-28.25 62.79,-39.19 l 26.03,25.18 c 29.47,28.53 78.81,13.56 87.45,-26.53 l 7.6,-35.25 c 12.19,-1.56 24.52,-2.57 36.96,-2.98 12.44,-0.4 24.81,-0.21 37.07,0.55 l 9.9,34.67 c 11.26,39.44 61.48,51.15 89.01,20.75 l 24.31,-26.84 c 22.73,9.46 44.56,21.16 65.23,34.98 l -8.77,35.02 c -9.97,39.79 27.66,75.03 66.71,62.47 l 34.37,-11.05 c 15.14,19.71 28.24,40.73 39.18,62.79 l -25.19,26.02 c -28.52,29.47 -13.55,78.81 26.54,87.46 l 35.25,7.6 c 1.56,12.19 2.57,24.51 2.97,36.96 0.41,12.44 0.22,24.8 -0.54,37.07 l -34.67,9.9 c -39.44,11.25 -51.15,61.47 -20.75,89 l 26.84,24.32 c -9.47,22.72 -21.16,44.56 -34.98,65.22 l -35.02,-8.77 c -39.78,-9.97 -75.03,27.67 -62.47,66.71 l 11.05,34.37 c -19.72,15.15 -40.73,28.25 -62.79,39.19 l -26.02,-25.2 c -29.47,-28.51 -78.81,-13.54 -87.46,26.55"
         style="fill:#ffffff;fill-opacity:1;fill-rule:nonzero;stroke:none"
         id="path246" /><path
         d="m 1883.88,3515.34 c 25.09,0 25.13,-38.99 0,-38.99 -25.09,0 -25.13,38.99 0,38.99 z m 120.36,0 c 25.09,0 25.13,-38.99 0,-38.99 -25.09,0 -25.14,38.99 0,38.99 z m -254.49,-38.99 c -25.09,0 -25.13,38.99 0,38.99 25.1,0 25.14,-38.99 0,-38.99 z m 407.44,31.42 c 0,111.93 -128.54,202.66 -287.1,202.66 -158.56,0 -287.1,-90.73 -287.1,-202.66 0,-70.73 51.35,-132.99 129.16,-169.24 l 160.35,-178.17 -26.67,145.48 c 8,-0.47 16.09,-0.72 24.26,-0.72 158.56,0 287.1,90.73 287.1,202.65"
         style="fill:#ffffff;fill-opacity:1;fill-rule:nonzero;stroke:none"
         id="path248" /></g></g></svg>
