<?xml version="1.0" encoding="utf-8"?>
<svg viewBox="0 0 32 16" fill="currentColor" xmlns="http://www.w3.org/2000/svg">
  <path d="M8.186 1.113a.5.5 0 0 0-.372 0L1.846 3.5l2.404.961L10.404 2l-2.218-.887zm3.564 1.426L5.596 5 8 5.961 14.154 3.5l-2.404-.961zm3.25 1.7-6.5 2.6v7.922l6.5-2.6V4.24zM7.5 14.762V6.838L1 4.239v7.923l6.5 2.6zM7.443.184a1.5 1.5 0 0 1 1.114 0l7.129 2.852A.5.5 0 0 1 16 3.5v8.662a1 1 0 0 1-.629.928l-7.185 2.874a.5.5 0 0 1-.372 0L.63 13.09a1 1 0 0 1-.63-.928V3.5a.5.5 0 0 1 .314-.464L7.443.184z" style="fill: rgb(10, 168, 167);"/>
  <path d="M -7.287 43.983 L -7.287 47.673 L -14.427 47.673 L -14.427 53.693 L -5.977 53.693 L -5.977 57.493 L -19.007 57.493 L -19.007 34.813 L -6.007 34.813 L -6.007 38.623 L -14.427 38.623 L -14.427 43.983 L -7.287 43.983 ZM 11.652 34.813 L 11.652 38.623 L 6.052 38.623 L 6.052 57.493 L 1.452 57.493 L 1.452 38.623 L -4.068 38.623 L -4.068 34.813 L 11.652 34.813 ZM 18.866 34.813 L 18.866 53.693 L 26.906 53.693 L 26.906 57.493 L 14.286 57.493 L 14.286 34.813 L 18.866 34.813 Z" transform="matrix(0.125343, 0.04925, 0.000935, 0.161197, 3.733299, 0.015956)" style="white-space: pre; fill: rgb(51, 51, 51);"/>
  <path d="M 36.758 8.154 L 30.168 8.154 L 30.168 -11.756 L 36.318 -11.756 C 38.398 -11.756 39.978 -11.293 41.058 -10.366 C 42.138 -9.439 42.678 -8.083 42.678 -6.296 C 42.678 -5.283 42.455 -4.413 42.008 -3.686 C 41.561 -2.959 40.951 -2.426 40.178 -2.086 C 41.071 -1.833 41.758 -1.319 42.238 -0.546 C 42.725 0.221 42.968 1.171 42.968 2.304 C 42.968 4.237 42.435 5.694 41.368 6.674 C 40.308 7.661 38.771 8.154 36.758 8.154 Z M 37.018 -0.496 L 34.188 -0.496 L 34.188 4.814 L 36.758 4.814 C 37.478 4.814 38.025 4.591 38.398 4.144 C 38.771 3.697 38.958 3.064 38.958 2.244 C 38.958 0.457 38.311 -0.456 37.018 -0.496 Z M 34.188 -8.406 L 34.188 -3.426 L 36.278 -3.426 C 37.858 -3.426 38.648 -4.243 38.648 -5.876 C 38.648 -6.776 38.465 -7.423 38.098 -7.816 C 37.731 -8.209 37.138 -8.406 36.318 -8.406 L 34.188 -8.406 ZM 59.887 -3.416 L 59.887 -0.006 C 59.887 2.661 59.257 4.734 57.997 6.214 C 56.737 7.687 54.984 8.424 52.737 8.424 C 50.504 8.424 48.75 7.694 47.477 6.234 C 46.204 4.767 45.557 2.717 45.537 0.084 L 45.537 -3.316 C 45.537 -6.049 46.17 -8.186 47.437 -9.726 C 48.704 -11.259 50.464 -12.026 52.717 -12.026 C 54.93 -12.026 56.674 -11.273 57.947 -9.766 C 59.227 -8.253 59.874 -6.136 59.887 -3.416 Z M 55.857 0.114 L 55.857 -3.346 C 55.857 -5.139 55.6 -6.473 55.087 -7.346 C 54.58 -8.226 53.79 -8.666 52.717 -8.666 C 51.65 -8.666 50.86 -8.243 50.347 -7.396 C 49.834 -6.556 49.57 -5.273 49.557 -3.546 L 49.557 -0.006 C 49.557 1.734 49.817 3.017 50.337 3.844 C 50.857 4.664 51.657 5.074 52.737 5.074 C 53.79 5.074 54.57 4.671 55.077 3.864 C 55.59 3.057 55.85 1.807 55.857 0.114 ZM 66.025 -11.756 L 68.705 -4.916 L 71.385 -11.756 L 75.995 -11.756 L 71.325 -1.886 L 76.105 8.154 L 71.445 8.154 L 68.705 1.194 L 65.985 8.154 L 61.325 8.154 L 66.115 -1.886 L 61.425 -11.756 L 66.025 -11.756 Z" transform="matrix(0.125314, 0.050099, 0.004387, 0.183329, -2.349312, 9.245245)" style="white-space: pre; fill: rgb(51, 51, 51);"/>
  <path d="M 1.844 -0.339 C 1.844 2.961 0.931 5.484 -0.896 7.231 C -2.729 8.978 -5.369 9.851 -8.816 9.851 L -14.406 9.851 L -14.406 -10.139 L -8.226 -10.139 C -5.046 -10.139 -2.573 -9.282 -0.806 -7.569 C 0.961 -5.856 1.844 -3.446 1.844 -0.339 Z M -1.596 -0.229 C -1.596 -5.009 -3.833 -7.399 -8.306 -7.399 L -11.136 -7.399 L -11.136 7.101 L -8.816 7.101 C -4.003 7.101 -1.596 4.658 -1.596 -0.229 ZM 9.406 9.851 L 6.136 9.851 L 6.136 -10.139 L 9.406 -10.139 L 9.406 9.851 ZM 26.197 4.421 C 26.197 6.201 25.557 7.598 24.277 8.611 C 22.991 9.618 21.217 10.121 18.957 10.121 C 16.697 10.121 14.847 9.771 13.407 9.071 L 13.407 5.981 C 14.314 6.408 15.281 6.744 16.307 6.991 C 17.334 7.238 18.291 7.361 19.177 7.361 C 20.471 7.361 21.424 7.114 22.037 6.621 C 22.651 6.134 22.957 5.474 22.957 4.641 C 22.957 3.894 22.677 3.261 22.117 2.741 C 21.551 2.221 20.384 1.604 18.617 0.891 C 16.791 0.158 15.504 -0.682 14.757 -1.629 C 14.011 -2.582 13.637 -3.722 13.637 -5.049 C 13.637 -6.716 14.231 -8.029 15.417 -8.989 C 16.597 -9.949 18.187 -10.429 20.187 -10.429 C 22.101 -10.429 24.004 -10.009 25.897 -9.169 L 24.857 -6.499 C 23.084 -7.246 21.501 -7.619 20.107 -7.619 C 19.047 -7.619 18.244 -7.389 17.697 -6.929 C 17.151 -6.469 16.877 -5.862 16.877 -5.109 C 16.877 -4.589 16.987 -4.142 17.207 -3.769 C 17.427 -3.402 17.787 -3.056 18.287 -2.729 C 18.787 -2.402 19.691 -1.969 20.997 -1.429 C 22.464 -0.816 23.537 -0.246 24.217 0.281 C 24.904 0.808 25.407 1.404 25.727 2.071 C 26.041 2.738 26.197 3.521 26.197 4.421 Z" transform="matrix(0.14671500027179718, -0.0578790009021759, 0, 0.35038599371910095, 10.87646198272705, 9.890707015991211)" style="fill: rgb(51, 51, 51); white-space: pre;"/>
  <path d="M -34.37 -20.089 C -34.37 -16.789 -35.283 -14.266 -37.11 -12.519 C -38.943 -10.772 -41.583 -9.899 -45.03 -9.899 L -50.62 -9.899 L -50.62 -29.889 L -44.44 -29.889 C -41.26 -29.889 -38.787 -29.032 -37.02 -27.319 C -35.253 -25.606 -34.37 -23.196 -34.37 -20.089 Z M -37.81 -19.979 C -37.81 -24.759 -40.047 -27.149 -44.52 -27.149 L -47.35 -27.149 L -47.35 -12.649 L -45.03 -12.649 C -40.217 -12.649 -37.81 -15.092 -37.81 -19.979 ZM -14.204 -9.899 L -17.674 -9.899 L -19.674 -15.449 L -27.314 -15.449 L -29.264 -9.899 L -32.714 -9.899 L -25.234 -29.969 L -21.684 -29.969 L -14.204 -9.899 Z M -26.354 -18.269 L -20.534 -18.269 L -22.404 -23.709 C -22.544 -24.076 -22.734 -24.649 -22.974 -25.429 C -23.214 -26.216 -23.381 -26.789 -23.474 -27.149 C -23.721 -26.029 -24.081 -24.806 -24.554 -23.479 L -26.354 -18.269 ZM -4.665 -27.089 L -4.665 -9.899 L -7.925 -9.899 L -7.925 -27.089 L -13.805 -27.089 L -13.805 -29.889 L 1.215 -29.889 L 1.215 -27.089 L -4.665 -27.089 ZM 20.149 -9.899 L 16.679 -9.899 L 14.679 -15.449 L 7.039 -15.449 L 5.089 -9.899 L 1.639 -9.899 L 9.119 -29.969 L 12.669 -29.969 L 20.149 -9.899 Z M 7.999 -18.269 L 13.819 -18.269 L 11.949 -23.709 C 11.809 -24.076 11.619 -24.649 11.379 -25.429 C 11.139 -26.216 10.972 -26.789 10.879 -27.149 C 10.632 -26.029 10.272 -24.806 9.799 -23.479 L 7.999 -18.269 Z" transform="matrix(0.0819690078496933, 0, 0, 0.11402499675750732, 20.71430015563965, 7.127009868621826)" style="fill: rgb(51, 51, 51); text-transform: uppercase; white-space: pre;"/>
  <path d="M -47.35 18.101 L -50.62 18.101 L -50.62 -1.889 L -47.35 -1.889 L -47.35 18.101 ZM -25.426 -1.889 L -25.426 18.101 L -29.426 18.101 L -39.256 2.171 L -39.366 2.171 L -39.306 3.061 C -39.173 4.754 -39.106 6.304 -39.106 7.711 L -39.106 18.101 L -42.076 18.101 L -42.076 -1.889 L -38.116 -1.889 L -28.306 13.961 L -28.226 13.961 C -28.246 13.748 -28.283 12.984 -28.336 11.671 C -28.39 10.351 -28.416 9.321 -28.416 8.581 L -28.416 -1.889 L -25.426 -1.889 ZM -13.25 0.911 L -13.25 18.101 L -16.51 18.101 L -16.51 0.911 L -22.39 0.911 L -22.39 -1.889 L -7.37 -1.889 L -7.37 0.911 L -13.25 0.911 ZM 7.004 15.321 L 7.004 18.101 L -4.306 18.101 L -4.306 -1.889 L 7.004 -1.889 L 7.004 0.871 L -1.036 0.871 L -1.036 6.311 L 6.494 6.311 L 6.494 9.051 L -1.036 9.051 L -1.036 15.321 L 7.004 15.321 ZM 19.489 10.061 L 19.489 7.261 L 26.849 7.261 L 26.849 17.291 C 25.649 17.684 24.492 17.964 23.379 18.131 C 22.272 18.291 21.079 18.371 19.799 18.371 C 16.772 18.371 14.439 17.478 12.799 15.691 C 11.152 13.898 10.329 11.371 10.329 8.111 C 10.329 4.891 11.255 2.371 13.109 0.551 C 14.962 -1.269 17.509 -2.179 20.749 -2.179 C 22.835 -2.179 24.815 -1.776 26.689 -0.969 L 25.539 1.751 C 23.912 1.004 22.289 0.631 20.669 0.631 C 18.535 0.631 16.849 1.301 15.609 2.641 C 14.369 3.981 13.749 5.811 13.749 8.131 C 13.749 10.578 14.309 12.434 15.429 13.701 C 16.542 14.974 18.149 15.611 20.249 15.611 C 21.302 15.611 22.432 15.481 23.639 15.221 L 23.639 10.061 L 19.489 10.061 ZM 34.916 0.871 L 34.916 7.411 L 37.186 7.411 C 38.706 7.411 39.806 7.128 40.486 6.561 C 41.173 5.994 41.516 5.158 41.516 4.051 C 41.516 2.918 41.146 2.104 40.406 1.611 C 39.666 1.118 38.556 0.871 37.076 0.871 L 34.916 0.871 Z M 38.136 10.121 L 34.916 10.121 L 34.916 18.101 L 31.646 18.101 L 31.646 -1.889 L 37.296 -1.889 C 39.869 -1.889 41.776 -1.406 43.016 -0.439 C 44.256 0.528 44.876 1.988 44.876 3.941 C 44.876 6.428 43.583 8.198 40.996 9.251 L 46.646 18.101 L 42.926 18.101 L 38.136 10.121 ZM 65.41 18.101 L 61.94 18.101 L 59.94 12.551 L 52.3 12.551 L 50.35 18.101 L 46.9 18.101 L 54.38 -1.969 L 57.93 -1.969 L 65.41 18.101 Z M 53.26 9.731 L 59.08 9.731 L 57.21 4.291 C 57.07 3.924 56.88 3.351 56.64 2.571 C 56.4 1.784 56.234 1.211 56.14 0.851 C 55.894 1.971 55.534 3.194 55.06 4.521 L 53.26 9.731 ZM 74.949 0.911 L 74.949 18.101 L 71.689 18.101 L 71.689 0.911 L 65.809 0.911 L 65.809 -1.889 L 80.829 -1.889 L 80.829 0.911 L 74.949 0.911 ZM 87.163 18.101 L 83.893 18.101 L 83.893 -1.889 L 87.163 -1.889 L 87.163 18.101 ZM 110.177 8.081 C 110.177 11.334 109.363 13.864 107.737 15.671 C 106.11 17.471 103.807 18.371 100.827 18.371 C 97.813 18.371 95.497 17.478 93.877 15.691 C 92.257 13.898 91.447 11.351 91.447 8.051 C 91.447 4.751 92.26 2.218 93.887 0.451 C 95.52 -1.316 97.843 -2.199 100.857 -2.199 C 103.83 -2.199 106.127 -1.302 107.747 0.491 C 109.367 2.284 110.177 4.814 110.177 8.081 Z M 94.927 8.081 C 94.927 10.541 95.423 12.408 96.417 13.681 C 97.41 14.948 98.88 15.581 100.827 15.581 C 102.773 15.581 104.24 14.954 105.227 13.701 C 106.213 12.441 106.707 10.568 106.707 8.081 C 106.707 5.628 106.217 3.768 105.237 2.501 C 104.257 1.234 102.797 0.601 100.857 0.601 C 98.897 0.601 97.417 1.234 96.417 2.501 C 95.423 3.768 94.927 5.628 94.927 8.081 ZM 131.123 -1.889 L 131.123 18.101 L 127.123 18.101 L 117.293 2.171 L 117.183 2.171 L 117.243 3.061 C 117.376 4.754 117.443 6.304 117.443 7.711 L 117.443 18.101 L 114.473 18.101 L 114.473 -1.889 L 118.433 -1.889 L 128.243 13.961 L 128.323 13.961 C 128.303 13.748 128.266 12.984 128.213 11.671 C 128.159 10.351 128.133 9.321 128.133 8.581 L 128.133 -1.889 L 131.123 -1.889 Z" transform="matrix(0.0819690078496933, 0, 0, 0.11402499675750732, 20.71430015563965, 7.127009868621826)" style="fill: rgb(51, 51, 51); text-transform: uppercase; white-space: pre;"/>
  <path d="M -39.1 40.671 C -39.1 42.451 -39.74 43.848 -41.02 44.861 C -42.307 45.868 -44.08 46.371 -46.34 46.371 C -48.6 46.371 -50.45 46.021 -51.89 45.321 L -51.89 42.231 C -50.983 42.658 -50.017 42.994 -48.99 43.241 C -47.963 43.488 -47.007 43.611 -46.12 43.611 C -44.827 43.611 -43.873 43.364 -43.26 42.871 C -42.647 42.384 -42.34 41.724 -42.34 40.891 C -42.34 40.144 -42.62 39.511 -43.18 38.991 C -43.747 38.471 -44.913 37.854 -46.68 37.141 C -48.507 36.408 -49.793 35.568 -50.54 34.621 C -51.287 33.668 -51.66 32.528 -51.66 31.201 C -51.66 29.534 -51.067 28.221 -49.88 27.261 C -48.7 26.301 -47.11 25.821 -45.11 25.821 C -43.197 25.821 -41.293 26.241 -39.4 27.081 L -40.44 29.751 C -42.213 29.004 -43.797 28.631 -45.19 28.631 C -46.25 28.631 -47.053 28.861 -47.6 29.321 C -48.147 29.781 -48.42 30.388 -48.42 31.141 C -48.42 31.661 -48.31 32.108 -48.09 32.481 C -47.87 32.848 -47.51 33.194 -47.01 33.521 C -46.51 33.848 -45.607 34.281 -44.3 34.821 C -42.833 35.434 -41.76 36.004 -41.08 36.531 C -40.393 37.058 -39.89 37.654 -39.57 38.321 C -39.257 38.988 -39.1 39.771 -39.1 40.671 ZM -23.918 43.321 L -23.918 46.101 L -35.228 46.101 L -35.228 26.111 L -23.918 26.111 L -23.918 28.871 L -31.958 28.871 L -31.958 34.311 L -24.428 34.311 L -24.428 37.051 L -31.958 37.051 L -31.958 43.321 L -23.918 43.321 ZM -16.333 28.871 L -16.333 35.411 L -14.063 35.411 C -12.543 35.411 -11.443 35.128 -10.763 34.561 C -10.076 33.994 -9.733 33.158 -9.733 32.051 C -9.733 30.918 -10.103 30.104 -10.843 29.611 C -11.583 29.118 -12.693 28.871 -14.173 28.871 L -16.333 28.871 Z M -13.113 38.121 L -16.333 38.121 L -16.333 46.101 L -19.603 46.101 L -19.603 26.111 L -13.953 26.111 C -11.379 26.111 -9.473 26.594 -8.233 27.561 C -6.993 28.528 -6.373 29.988 -6.373 31.941 C -6.373 34.428 -7.666 36.198 -10.253 37.251 L -4.603 46.101 L -8.323 46.101 L -13.113 38.121 ZM 5.511 38.481 L 9.681 26.111 L 13.071 26.111 L 6.071 46.101 L 2.621 46.101 L -4.349 26.111 L -0.989 26.111 L 3.181 38.541 C 3.401 39.134 3.635 39.898 3.881 40.831 C 4.128 41.764 4.288 42.458 4.361 42.911 C 4.481 42.224 4.665 41.424 4.911 40.511 C 5.158 39.598 5.358 38.921 5.511 38.481 ZM 18.977 46.101 L 15.707 46.101 L 15.707 26.111 L 18.977 26.111 L 18.977 46.101 ZM 32.751 28.631 C 30.877 28.631 29.401 29.294 28.321 30.621 C 27.247 31.954 26.711 33.791 26.711 36.131 C 26.711 38.584 27.227 40.441 28.261 41.701 C 29.294 42.954 30.791 43.581 32.751 43.581 C 33.597 43.581 34.417 43.498 35.211 43.331 C 36.004 43.164 36.831 42.948 37.691 42.681 L 37.691 45.481 C 36.124 46.074 34.347 46.371 32.361 46.371 C 29.434 46.371 27.187 45.484 25.621 43.711 C 24.047 41.944 23.261 39.411 23.261 36.111 C 23.261 34.031 23.644 32.211 24.411 30.651 C 25.171 29.091 26.271 27.898 27.711 27.071 C 29.151 26.238 30.841 25.821 32.781 25.821 C 34.821 25.821 36.707 26.251 38.441 27.111 L 37.261 29.831 C 36.587 29.511 35.874 29.231 35.121 28.991 C 34.374 28.751 33.584 28.631 32.751 28.631 ZM 53.304 43.321 L 53.304 46.101 L 41.994 46.101 L 41.994 26.111 L 53.304 26.111 L 53.304 28.871 L 45.264 28.871 L 45.264 34.311 L 52.794 34.311 L 52.794 37.051 L 45.264 37.051 L 45.264 43.321 L 53.304 43.321 ZM 69.139 40.671 C 69.139 42.451 68.499 43.848 67.219 44.861 C 65.932 45.868 64.159 46.371 61.899 46.371 C 59.639 46.371 57.789 46.021 56.349 45.321 L 56.349 42.231 C 57.256 42.658 58.222 42.994 59.249 43.241 C 60.276 43.488 61.232 43.611 62.119 43.611 C 63.412 43.611 64.366 43.364 64.979 42.871 C 65.592 42.384 65.899 41.724 65.899 40.891 C 65.899 40.144 65.619 39.511 65.059 38.991 C 64.492 38.471 63.326 37.854 61.559 37.141 C 59.732 36.408 58.446 35.568 57.699 34.621 C 56.952 33.668 56.579 32.528 56.579 31.201 C 56.579 29.534 57.172 28.221 58.359 27.261 C 59.539 26.301 61.129 25.821 63.129 25.821 C 65.042 25.821 66.946 26.241 68.839 27.081 L 67.799 29.751 C 66.026 29.004 64.442 28.631 63.049 28.631 C 61.989 28.631 61.186 28.861 60.639 29.321 C 60.092 29.781 59.819 30.388 59.819 31.141 C 59.819 31.661 59.929 32.108 60.149 32.481 C 60.369 32.848 60.729 33.194 61.229 33.521 C 61.729 33.848 62.632 34.281 63.939 34.821 C 65.406 35.434 66.479 36.004 67.159 36.531 C 67.846 37.058 68.349 37.654 68.669 38.321 C 68.982 38.988 69.139 39.771 69.139 40.671 Z" transform="matrix(0.0819690078496933, 0, 0, 0.11402499675750732, 20.71430015563965, 7.127009868621826)" style="fill: rgb(51, 51, 51); text-transform: uppercase; white-space: pre;"/>
</svg>