<?xml version="1.0" encoding="utf-8"?>
<svg viewBox="0 0 16 16" fill="currentColor" xmlns="http://www.w3.org/2000/svg">
  <path d="M8.186 1.113a.5.5 0 0 0-.372 0L1.846 3.5l2.404.961L10.404 2l-2.218-.887zm3.564 1.426L5.596 5 8 5.961 14.154 3.5l-2.404-.961zm3.25 1.7-6.5 2.6v7.922l6.5-2.6V4.24zM7.5 14.762V6.838L1 4.239v7.923l6.5 2.6zM7.443.184a1.5 1.5 0 0 1 1.114 0l7.129 2.852A.5.5 0 0 1 16 3.5v8.662a1 1 0 0 1-.629.928l-7.185 2.874a.5.5 0 0 1-.372 0L.63 13.09a1 1 0 0 1-.63-.928V3.5a.5.5 0 0 1 .314-.464L7.443.184z" style="fill: rgb(10, 168, 167);"/>
  <path d="M -7.287 43.983 L -7.287 47.673 L -14.427 47.673 L -14.427 53.693 L -5.977 53.693 L -5.977 57.493 L -19.007 57.493 L -19.007 34.813 L -6.007 34.813 L -6.007 38.623 L -14.427 38.623 L -14.427 43.983 L -7.287 43.983 ZM 11.652 34.813 L 11.652 38.623 L 6.052 38.623 L 6.052 57.493 L 1.452 57.493 L 1.452 38.623 L -4.068 38.623 L -4.068 34.813 L 11.652 34.813 ZM 18.866 34.813 L 18.866 53.693 L 26.906 53.693 L 26.906 57.493 L 14.286 57.493 L 14.286 34.813 L 18.866 34.813 Z" transform="matrix(0.125343, 0.04925, 0.000935, 0.161197, 3.733299, 0.015956)" style="white-space: pre; fill: rgb(51, 51, 51);"/>
  <path d="M 36.758 8.154 L 30.168 8.154 L 30.168 -11.756 L 36.318 -11.756 C 38.398 -11.756 39.978 -11.293 41.058 -10.366 C 42.138 -9.439 42.678 -8.083 42.678 -6.296 C 42.678 -5.283 42.455 -4.413 42.008 -3.686 C 41.561 -2.959 40.951 -2.426 40.178 -2.086 C 41.071 -1.833 41.758 -1.319 42.238 -0.546 C 42.725 0.221 42.968 1.171 42.968 2.304 C 42.968 4.237 42.435 5.694 41.368 6.674 C 40.308 7.661 38.771 8.154 36.758 8.154 Z M 37.018 -0.496 L 34.188 -0.496 L 34.188 4.814 L 36.758 4.814 C 37.478 4.814 38.025 4.591 38.398 4.144 C 38.771 3.697 38.958 3.064 38.958 2.244 C 38.958 0.457 38.311 -0.456 37.018 -0.496 Z M 34.188 -8.406 L 34.188 -3.426 L 36.278 -3.426 C 37.858 -3.426 38.648 -4.243 38.648 -5.876 C 38.648 -6.776 38.465 -7.423 38.098 -7.816 C 37.731 -8.209 37.138 -8.406 36.318 -8.406 L 34.188 -8.406 ZM 59.887 -3.416 L 59.887 -0.006 C 59.887 2.661 59.257 4.734 57.997 6.214 C 56.737 7.687 54.984 8.424 52.737 8.424 C 50.504 8.424 48.75 7.694 47.477 6.234 C 46.204 4.767 45.557 2.717 45.537 0.084 L 45.537 -3.316 C 45.537 -6.049 46.17 -8.186 47.437 -9.726 C 48.704 -11.259 50.464 -12.026 52.717 -12.026 C 54.93 -12.026 56.674 -11.273 57.947 -9.766 C 59.227 -8.253 59.874 -6.136 59.887 -3.416 Z M 55.857 0.114 L 55.857 -3.346 C 55.857 -5.139 55.6 -6.473 55.087 -7.346 C 54.58 -8.226 53.79 -8.666 52.717 -8.666 C 51.65 -8.666 50.86 -8.243 50.347 -7.396 C 49.834 -6.556 49.57 -5.273 49.557 -3.546 L 49.557 -0.006 C 49.557 1.734 49.817 3.017 50.337 3.844 C 50.857 4.664 51.657 5.074 52.737 5.074 C 53.79 5.074 54.57 4.671 55.077 3.864 C 55.59 3.057 55.85 1.807 55.857 0.114 ZM 66.025 -11.756 L 68.705 -4.916 L 71.385 -11.756 L 75.995 -11.756 L 71.325 -1.886 L 76.105 8.154 L 71.445 8.154 L 68.705 1.194 L 65.985 8.154 L 61.325 8.154 L 66.115 -1.886 L 61.425 -11.756 L 66.025 -11.756 Z" transform="matrix(0.125314, 0.050099, 0.004387, 0.183329, -2.349312, 9.245245)" style="white-space: pre; fill: rgb(51, 51, 51);"/>
  <path d="M 1.844 -0.339 C 1.844 2.961 0.931 5.484 -0.896 7.231 C -2.729 8.978 -5.369 9.851 -8.816 9.851 L -14.406 9.851 L -14.406 -10.139 L -8.226 -10.139 C -5.046 -10.139 -2.573 -9.282 -0.806 -7.569 C 0.961 -5.856 1.844 -3.446 1.844 -0.339 Z M -1.596 -0.229 C -1.596 -5.009 -3.833 -7.399 -8.306 -7.399 L -11.136 -7.399 L -11.136 7.101 L -8.816 7.101 C -4.003 7.101 -1.596 4.658 -1.596 -0.229 ZM 9.406 9.851 L 6.136 9.851 L 6.136 -10.139 L 9.406 -10.139 L 9.406 9.851 ZM 26.197 4.421 C 26.197 6.201 25.557 7.598 24.277 8.611 C 22.991 9.618 21.217 10.121 18.957 10.121 C 16.697 10.121 14.847 9.771 13.407 9.071 L 13.407 5.981 C 14.314 6.408 15.281 6.744 16.307 6.991 C 17.334 7.238 18.291 7.361 19.177 7.361 C 20.471 7.361 21.424 7.114 22.037 6.621 C 22.651 6.134 22.957 5.474 22.957 4.641 C 22.957 3.894 22.677 3.261 22.117 2.741 C 21.551 2.221 20.384 1.604 18.617 0.891 C 16.791 0.158 15.504 -0.682 14.757 -1.629 C 14.011 -2.582 13.637 -3.722 13.637 -5.049 C 13.637 -6.716 14.231 -8.029 15.417 -8.989 C 16.597 -9.949 18.187 -10.429 20.187 -10.429 C 22.101 -10.429 24.004 -10.009 25.897 -9.169 L 24.857 -6.499 C 23.084 -7.246 21.501 -7.619 20.107 -7.619 C 19.047 -7.619 18.244 -7.389 17.697 -6.929 C 17.151 -6.469 16.877 -5.862 16.877 -5.109 C 16.877 -4.589 16.987 -4.142 17.207 -3.769 C 17.427 -3.402 17.787 -3.056 18.287 -2.729 C 18.787 -2.402 19.691 -1.969 20.997 -1.429 C 22.464 -0.816 23.537 -0.246 24.217 0.281 C 24.904 0.808 25.407 1.404 25.727 2.071 C 26.041 2.738 26.197 3.521 26.197 4.421 Z" transform="matrix(0.14671500027179718, -0.0578790009021759, 0, 0.35038599371910095, 10.87646198272705, 9.890707015991211)" style="fill: rgb(51, 51, 51); white-space: pre;"/>
</svg>